<svg width="1920" height="268" viewBox="0 0 1920 268" fill="none" xmlns="http://www.w3.org/2000/svg">
<rect width="1920" height="268" fill="#C8102E"/>
<g clip-path="url(#clip0_2349_49)">
<g clip-path="url(#clip1_2349_49)">
<mask id="mask0_2349_49" style="mask-type:luminance" maskUnits="userSpaceOnUse" x="0" y="-45" width="1920" height="358">
<path d="M1920 -44.6667H0V312.667H1920V-44.6667Z" fill="white"/>
</mask>
<g mask="url(#mask0_2349_49)">
<path d="M1920 -44.6667H0V312.667H1920V-44.6667Z" fill="#8E0005"/>
<path d="M222.735 289.196C222.735 289.196 226.171 272.857 242.833 262.663C259.495 252.467 285.363 242.279 288.38 232.691C288.38 232.691 288.137 276.183 260.548 292.099C232.959 308.016 219.248 307.76 219.248 307.76L222.728 289.196H222.735Z" fill="#DB3339"/>
<path d="M285.249 283.075C285.633 283.559 286.124 283.067 285.883 282.675C285.427 281.947 284.808 282.517 285.249 283.075ZM320.296 270.268C321.284 269.911 322.259 270.696 321.761 271.224C320.772 272.28 319.292 270.632 320.296 270.268ZM299.059 188.835C298.112 190.068 297.971 189.619 296.889 188.035C296.085 185.303 299.984 187.621 299.059 188.835ZM297.877 277.145C297.743 276.888 298.24 276.745 298.425 276.967C298.483 277.031 298.368 277.239 298.297 277.516C298.084 277.337 297.935 277.26 297.877 277.145ZM170.507 336.433C169.76 336.561 169.227 335.741 169.767 335.427C170.999 334.735 171.916 336.191 170.507 336.433ZM283.193 288.34C283.072 287.384 284.573 288.089 283.748 288.639C283.549 288.775 283.221 288.596 283.193 288.34ZM279.7 288.461C279.301 288.475 279.245 287.825 279.7 287.691C280.233 287.527 280.191 288.447 279.7 288.461ZM224.784 300.868C225.083 301.06 225.309 301.153 225.452 301.317C225.723 301.639 224.335 302.459 224.784 300.868ZM210.832 340.549C210.761 340.407 210.832 340.193 210.853 339.879C211.137 340 211.352 340.029 211.465 340.157C211.672 340.385 211.067 341.021 210.832 340.549ZM204.735 318.112C204.927 318.761 203.995 318.889 203.845 318.297C203.675 317.627 204.585 317.605 204.735 318.112ZM148.153 283.096C147.663 281.961 148.495 282.275 148.623 280.769C148.723 279.6 150.309 280.007 149.847 280.848C149.527 281.419 149.036 281.461 149.712 281.847C151.839 283.045 149.021 285.1 148.16 283.096H148.153ZM193.729 294.968C193.623 295.181 193.587 295.352 193.487 295.439C193.045 295.824 192.661 294.868 193.216 294.817C193.352 294.803 193.501 294.896 193.729 294.968ZM262.76 363.773C263.188 364.521 261.956 365.221 261.721 364.4C261.565 363.844 262.405 363.159 262.76 363.773ZM186.244 364.593C185.156 363.701 185.853 361.853 187.005 363.616C187.447 364.785 186.721 364.985 186.244 364.593ZM208.2 317.313C209.139 316.941 210.277 318.568 209.26 318.533C208.769 318.519 207.944 317.884 208.2 317.313ZM200.757 353.435C200.616 352.251 202.971 351.672 202.679 352.572C202.237 353.905 200.864 354.312 200.757 353.435ZM316.745 258.788C316.404 258.239 317.328 257.553 317.791 258.224C318.268 258.916 317.172 259.48 316.745 258.788ZM179.451 318.297C180.695 318.219 179.408 319.981 178.483 319.896C177.415 319.803 178.24 318.376 179.451 318.297ZM280.917 332.288C280.681 332.616 279.451 332.26 280.135 331.332C280.327 331.383 280.583 331.389 280.76 331.511C281.031 331.696 281.08 332.067 280.924 332.281L280.917 332.288ZM306.515 285.928C306.337 286.043 306.18 285.949 306.131 285.764C306.101 285.671 306.18 285.543 306.244 285.321C306.429 285.457 306.92 285.671 306.521 285.935L306.515 285.928ZM239.575 318.119C240.144 319.217 238.721 320.359 238.543 319.524C238.308 318.455 239.268 317.533 239.575 318.119ZM219.376 337.753C219.213 337.681 219.049 337.611 218.793 337.504C218.921 337.296 219.013 336.819 219.512 337.383C219.555 337.432 219.427 337.625 219.376 337.753ZM236.237 350.339C236.011 350.945 236.16 350.803 235.519 350.681C235.853 350.075 235.668 350.139 236.237 350.339ZM303.783 292.228C304.252 292.313 303.875 293.297 303.143 293.22C302.687 293.169 303.049 292.099 303.783 292.228ZM328.725 298.869C326.221 298.963 326.208 296.429 327.78 296.559C329.616 296.701 330.22 298.813 328.725 298.869ZM307.696 317.341C307.575 316.571 308.029 316.599 307.468 315.915C306.956 315.293 307.788 314.537 308.244 314.901C308.727 315.293 308.308 315.872 308.293 316.179C308.244 317.077 308.684 317.205 309.225 317.927C309.887 318.804 307.916 318.697 307.703 317.341H307.696ZM242.748 324.048C242.192 325.36 241.637 323.991 242.249 323.919C242.385 323.905 242.535 323.984 242.748 324.048ZM326.812 317.041C325.788 317.533 325.596 317.391 325.816 318.304C325.859 318.483 325.859 318.625 325.831 318.747C325.567 318.847 325.297 318.94 325.041 319.047C325.041 319.047 325.033 319.047 325.033 319.039C323.995 317.763 323.852 317.356 324.037 317.099C324.963 315.793 324.216 314.544 325.24 314.901C327.473 315.679 327.375 316.777 326.819 317.041H326.812ZM199.292 241.693C198.46 241.301 198.567 239.639 199.776 240.888C199.868 241.437 199.791 241.929 199.292 241.693ZM228.256 257.048C229.124 257.44 229.444 256.733 229.856 257.319C230.027 257.553 229.521 257.953 229.401 257.853C228.675 257.283 227.836 258.268 227.708 257.647C227.644 257.34 227.871 256.876 228.256 257.055V257.048ZM308.933 248.915C309.573 249.143 309.624 249.577 309.432 249.999C309.048 250.869 307.987 249.592 308.933 248.915ZM149.015 328.685C149.868 328.6 150.409 329.327 149.96 329.62C148.793 330.369 147.784 328.813 149.015 328.685ZM204.913 302.465C204.877 302.437 204.948 302.259 204.999 302.052C205.176 302.145 205.332 302.188 205.417 302.288C205.475 302.352 205.375 302.808 204.92 302.459L204.913 302.465ZM201.156 302.837C202.643 302.437 202.145 304.913 201.113 303.843C200.757 303.479 200.68 302.965 201.156 302.837ZM235.712 280.427C236.444 280.769 235.996 281.141 235.811 281.184C235.313 281.305 235.071 280.677 235.712 280.427ZM208.975 301.339C209.239 302.052 208.277 302.416 208.1 301.739C207.929 301.081 208.761 300.768 208.975 301.339ZM242.463 267.528C242.932 267.072 243.445 268.863 242.627 268.641C242.185 268.527 242.029 267.949 242.463 267.528ZM153.483 306.619C154.833 307.703 156.535 310.641 154.812 310.443C153.788 310.328 151.803 309.579 152.088 308.652C152.408 307.631 152.807 306.076 153.483 306.619ZM169.205 261.4C169.639 260.685 170.905 260.764 170.905 261.899C170.905 264.253 168.344 262.819 169.205 261.4ZM247.223 296.131C246.276 296.052 245.956 294.832 247.536 294.375C248.987 293.955 248.724 296.259 247.223 296.131ZM153.077 352.029C153.752 351.387 154.357 352.244 154.663 352.579C156.072 355.675 151.683 353.356 153.077 352.029ZM249.997 344.667C251.015 344.231 251 346.679 249.605 345.887C249.371 345.473 249.577 344.845 249.997 344.667ZM187.184 339.408C187.988 339.137 188.771 340.5 187.852 340.935C186.963 341.356 186.436 339.659 187.184 339.408ZM292.008 311.241C292.193 311.22 292.385 311.299 292.699 311.363C292.571 311.627 292.528 311.855 292.392 311.948C291.901 312.291 291.575 311.291 292.008 311.241ZM218.196 308.559C218.081 308.773 218.039 308.944 217.932 309.037C217.469 309.465 217.085 308.509 217.661 308.437C217.804 308.423 217.961 308.501 218.196 308.559ZM231.101 301.232C231.236 301.181 231.393 301.217 231.677 301.211C231.172 302.352 230.667 301.396 231.101 301.232ZM224.691 295.06C224.571 295.196 224.492 295.339 224.377 295.396C224.328 295.424 224.1 295.26 224.115 295.209C224.221 294.647 224.428 294.889 224.699 295.06H224.691ZM230.611 237.171C230.048 236.115 231.585 235.323 232.168 236.329C232.68 237.213 231.116 238.127 230.611 237.171ZM219.504 367.804C219.149 366.884 221.141 366.633 220.444 367.875C220.359 368.032 219.696 368.303 219.504 367.804ZM200.004 280.484C200.025 279.635 200.025 278.793 200.175 278.329C200.779 276.481 202.956 277.281 202.828 278.365C202.657 279.777 201.497 279.371 201.868 280.256C202.109 280.833 202.387 281.319 201.604 281.612C200.672 281.961 199.976 281.476 199.997 280.484H200.004ZM266.155 256.312C266.993 257.119 265.976 257.176 265.969 256.697C265.969 256.597 266.061 256.499 266.155 256.312ZM289.369 247.936C289.86 248.336 289.86 248.136 289.589 248.679C289.063 248.393 289.163 248.557 289.369 247.936ZM220.287 322.307C220.444 321.587 221.632 321.237 222.193 322.007C223.155 323.341 220.095 323.184 220.287 322.307ZM218.601 292.341C218.367 293.084 217.975 293.176 217.619 292.877C216.893 292.264 218.915 291.372 218.601 292.341ZM318.247 234.873C318.773 235.144 318.709 234.923 318.88 235.708C318.893 235.787 318.161 235.915 318.083 235.387C318.061 235.252 318.168 235.087 318.239 234.873H318.247ZM289.056 219.184C290.137 218.643 290.784 219.669 290.229 219.912C289.312 220.312 288.529 219.427 289.056 219.184ZM329.851 282.353C330.071 284.023 328.469 283.931 328.469 282.853C328.469 282.296 329.38 281.312 329.851 282.353ZM357.333 234.573C356.977 235.879 356.672 235.851 356.977 236.343C357.135 236.585 356.103 237.841 356.195 234.767C356.224 233.924 357.199 234.516 357.333 234.573ZM278.96 266.315C278.953 266.129 279.045 265.944 279.117 265.665C280.419 266.329 278.989 266.836 278.96 266.315ZM273.639 268.577C273.568 268.712 273.532 268.891 273.419 268.963C273.225 269.097 272.935 268.997 272.913 268.805C272.899 268.676 272.999 268.533 273.084 268.305C273.319 268.42 273.475 268.499 273.632 268.577H273.639ZM284.481 264.083C285.093 263.74 285.299 264.881 284.659 265.095C284.161 265.259 283.933 264.389 284.481 264.083ZM349.977 264.896C349.408 263.925 348.263 264.011 348.653 263.14C348.96 262.441 349.863 262.748 349.849 263.269C349.828 264.289 350.475 264.032 350.468 264.553C350.468 264.967 350.012 264.952 349.977 264.896ZM213.436 298.799C213.792 299.355 212.881 299.925 212.54 299.22C212.263 298.649 213.101 298.271 213.436 298.799ZM295.288 253.951C294.968 254.136 294.975 253.073 295.58 252.967C295.715 252.945 296.689 253.152 295.288 253.951ZM298.325 246.324C298.425 245.319 299.543 245.54 299.492 246.439C299.443 247.431 298.205 247.551 298.325 246.324ZM271.625 260.821C270.828 261.015 270.999 259.359 271.533 259.765C271.973 260.101 271.917 260.751 271.625 260.821ZM255.397 232.548C254.152 233.517 252.936 227.075 255.511 231.471C255.767 231.905 255.817 232.219 255.397 232.548ZM212.703 250.883C212.489 250.541 213.095 249.977 213.564 250.077C214.673 250.32 213.195 251.668 212.703 250.883ZM254.6 281.412C253.847 279.956 256.557 279.885 256.479 281.861C256.436 282.817 255.248 282.647 254.6 281.412ZM288.395 246.324C288.003 246.652 287.391 246.003 287.889 245.625C288.309 245.311 289.105 245.732 288.395 246.324ZM270.145 264.196C269.783 264.117 269.74 263.568 270.28 263.519C270.8 264.132 270.224 264.211 270.145 264.196ZM181.755 283.224C182.289 284.259 180.859 284.779 180.353 283.737C179.955 282.911 181.307 282.353 181.755 283.224ZM222.536 221.296C221.817 220.789 222.315 219.292 223.104 219.655C224.143 220.14 223.332 221.853 222.536 221.296ZM268.245 307.973C267.797 308.159 267.377 307.332 268.203 306.996C268.815 307.439 268.559 307.845 268.245 307.973ZM262.469 206.856C261.708 205.551 263.984 203.973 263.949 205.115C263.913 206.328 263.009 207.784 262.469 206.856ZM208.085 268.505C207.609 269.119 207.317 268.691 207.311 268.448C207.296 268.041 207.915 267.913 208.085 268.505Z" fill="#D93339"/>
<path d="M147.852 50.5358C145.137 54.714 140.852 57.1588 136.596 54.7842C129.135 50.6259 126.471 41.4879 126.791 39.6743C127.202 37.3998 127.993 35.5962 129.024 34.1834L106.782 14.8552L65.9521 20.807L78.8209 29.3539C84.1788 23.7027 92.9516 20.2759 98.3095 22.5604C108.094 26.7387 112.951 40.3958 104.649 46.4978L156.925 81.1864C158.588 78.1103 161.332 76.1364 165.067 76.5672C174.401 77.6494 180.96 85.8355 181.391 87.8195C182.703 93.9014 180.62 98.1 177.175 100.595C170.945 116.205 151.227 165.403 148.984 168.929L158.757 166.004L193.469 90.1947L147.852 50.5558V50.5358Z" fill="#A13137"/>
<path d="M157.547 98.6307C154.412 93.4 154.352 85.9659 156.935 81.1763L104.659 46.4877C104.038 46.9385 103.357 47.3595 102.596 47.7201C91.7499 52.8503 79.9327 49.644 78.3403 48.1109C71.8108 41.8185 73.8338 34.6143 78.8311 29.3439L65.9622 20.7969C57.8704 30.5361 51.3008 44.2132 46.2034 57.7099C52.172 62.2489 54.866 71.7977 51.1506 76.8377C48.026 81.0761 42.618 83.9017 37.6408 84.4728C34.4362 96.316 32.8538 104.693 32.8538 104.693L96.9275 154.712C98.0792 151.676 99.5112 149.541 100.282 149.011C115.144 138.649 126.631 159.461 120.462 167.828C119.651 168.94 118.669 169.941 117.588 170.844L129.365 180.032L148.993 168.9C151.247 165.383 170.956 116.185 177.185 100.564C171.105 104.964 160.791 104.012 157.556 98.6107L157.547 98.6307ZM115.074 91.4067C133.832 78.3407 148.323 104.592 140.541 115.153C132.64 125.875 113.141 129.472 109.626 117.197C106.181 105.173 112.861 92.9493 115.074 91.4067ZM84.96 103.881C79.2216 111.667 65.061 114.281 62.4972 105.364C59.9935 96.6267 64.8506 87.7493 66.453 86.6271C80.0828 77.1283 90.6083 96.2067 84.95 103.881H84.96Z" fill="#E6BB95"/>
<path d="M193.199 67.3589C193.739 68.0404 194.431 67.3489 194.089 66.7979C193.448 65.7758 192.577 66.5775 193.199 67.3589ZM242.531 49.3735C243.923 48.8724 245.295 49.9745 244.593 50.716C243.201 52.1989 241.119 49.8844 242.531 49.3735ZM212.637 -64.9928C211.305 -63.2593 211.104 -63.8905 209.583 -66.1149C208.451 -69.9525 213.939 -66.6961 212.637 -64.9928ZM210.975 59.0325C210.784 58.6719 211.485 58.4715 211.745 58.782C211.825 58.8723 211.665 59.1628 211.565 59.5536C211.265 59.3031 211.055 59.1928 210.975 59.0325ZM31.682 142.297C30.6305 142.477 29.8795 141.325 30.6405 140.884C32.3731 139.912 33.6649 141.956 31.682 142.297ZM190.304 74.7536C190.133 73.4109 192.247 74.4029 191.085 75.1744C190.805 75.3648 190.344 75.1144 190.304 74.7536ZM185.387 74.924C184.827 74.944 184.745 74.0321 185.387 73.8419C186.137 73.6113 186.077 74.9039 185.387 74.924ZM108.084 92.348C108.504 92.6187 108.825 92.7493 109.025 92.98C109.406 93.4307 107.453 94.5827 108.084 92.348ZM88.4451 148.079C88.3449 147.879 88.4451 147.577 88.4751 147.137C88.8757 147.307 89.1761 147.347 89.3364 147.528C89.6268 147.848 88.7756 148.74 88.4451 148.079ZM79.8625 116.567C80.1329 117.479 78.8211 117.659 78.6107 116.827C78.3704 115.885 79.6523 115.855 79.8625 116.567ZM0.216048 67.3891C-0.474963 65.7959 0.696739 66.2368 0.877002 64.1225C1.01721 62.4793 3.25048 63.0505 2.59952 64.2328C2.14887 65.0344 1.45787 65.0945 2.40925 65.6356C5.40364 67.3189 1.43783 70.2047 0.226057 67.3891H0.216048ZM64.3699 84.062C64.2196 84.3627 64.1696 84.6031 64.0293 84.7233C63.4085 85.2644 62.8677 83.9217 63.6488 83.8516C63.8391 83.8316 64.0493 83.9619 64.3699 84.062ZM161.541 180.693C162.143 181.745 160.411 182.727 160.08 181.575C159.86 180.793 161.041 179.832 161.541 180.693ZM53.8344 181.845C52.3023 180.593 53.2836 177.997 54.906 180.473C55.5269 182.116 54.5055 182.396 53.8344 181.845ZM84.7396 115.444C86.0616 114.923 87.6639 117.208 86.2319 117.157C85.5408 117.137 84.3791 116.245 84.7396 115.444ZM74.2644 166.175C74.064 164.511 77.3789 163.7 76.9683 164.963C76.3473 166.836 74.4145 167.407 74.2644 166.175ZM237.533 33.2516C237.052 32.48 238.355 31.5181 239.005 32.46C239.676 33.4319 238.133 34.2235 237.533 33.2516ZM44.2705 116.827C46.0231 116.716 44.2104 119.192 42.9085 119.071C41.4063 118.941 42.568 116.937 44.2705 116.827ZM187.099 136.476C186.769 136.936 185.036 136.436 185.997 135.133C186.268 135.203 186.628 135.213 186.879 135.384C187.26 135.644 187.329 136.165 187.109 136.465L187.099 136.476ZM223.132 71.3669C222.881 71.5272 222.661 71.3969 222.591 71.1364C222.551 71.0061 222.661 70.8259 222.752 70.5152C223.012 70.7056 223.703 71.0063 223.143 71.3769L223.132 71.3669ZM128.904 116.576C129.705 118.12 127.703 119.723 127.452 118.551C127.122 117.047 128.474 115.755 128.904 116.576ZM100.473 144.151C100.242 144.051 100.012 143.951 99.6515 143.8C99.8317 143.509 99.9619 142.839 100.663 143.629C100.723 143.7 100.543 143.971 100.473 144.151ZM124.207 161.825C123.887 162.677 124.097 162.477 123.196 162.307C123.667 161.455 123.406 161.545 124.207 161.825ZM219.287 80.2144C219.948 80.3347 219.416 81.7173 218.385 81.6072C217.744 81.5371 218.255 80.034 219.287 80.2144ZM254.397 89.5427C250.872 89.6733 250.852 86.1161 253.065 86.2964C255.649 86.4968 256.501 89.4627 254.397 89.5427ZM224.795 115.484C224.624 114.403 225.265 114.443 224.475 113.48C223.753 112.608 224.924 111.547 225.565 112.057C226.247 112.608 225.656 113.42 225.636 113.851C225.565 115.113 226.187 115.293 226.948 116.305C227.879 117.539 225.105 117.388 224.804 115.484H224.795ZM133.371 124.903C132.59 126.747 131.809 124.823 132.67 124.723C132.86 124.703 133.07 124.812 133.371 124.903ZM251.704 115.064C250.261 115.755 249.992 115.555 250.301 116.837C250.361 117.088 250.361 117.288 250.321 117.459C249.951 117.599 249.571 117.728 249.211 117.879C249.211 117.879 249.2 117.879 249.2 117.869C247.739 116.076 247.537 115.504 247.799 115.144C249.1 113.309 248.048 111.556 249.491 112.057C252.635 113.149 252.495 114.692 251.713 115.064H251.704ZM72.2013 9.24399C71.0296 8.69292 71.1799 6.35839 72.8823 8.11185C73.0125 8.88332 72.9024 9.57465 72.2013 9.24399ZM112.971 30.8067C114.193 31.3577 114.643 30.3659 115.224 31.1875C115.465 31.5181 114.753 32.0792 114.583 31.9389C113.562 31.1373 112.38 32.5201 112.2 31.6484C112.11 31.2175 112.43 30.5663 112.971 30.8167V30.8067ZM226.537 19.3841C227.439 19.7048 227.508 20.316 227.239 20.9071C226.697 22.1295 225.205 20.336 226.537 19.3841ZM1.42781 131.416C2.62957 131.296 3.39068 132.317 2.75976 132.728C1.11736 133.78 -0.304723 131.596 1.42781 131.416ZM80.1129 94.5933C80.0628 94.5533 80.1629 94.3027 80.2331 94.012C80.4835 94.1413 80.7037 94.2027 80.8239 94.3427C80.904 94.432 80.7639 95.0733 80.1229 94.5827L80.1129 94.5933ZM74.8252 95.1133C76.9183 94.5533 76.2172 98.0293 74.7651 96.5267C74.2644 96.016 74.1541 95.2947 74.8252 95.1133ZM123.466 63.6416C124.498 64.1225 123.867 64.6436 123.607 64.7037C122.905 64.8741 122.565 63.9924 123.466 63.6416ZM85.8312 93.0093C86.2017 94.012 84.8499 94.5227 84.5995 93.5707C84.3591 92.6493 85.5308 92.208 85.8312 93.0093ZM132.97 45.5259C133.631 44.8845 134.352 47.3995 133.201 47.0889C132.58 46.9285 132.359 46.1169 132.97 45.5259ZM7.71701 100.424C9.61979 101.948 12.0133 106.076 9.58976 105.795C8.14765 105.635 5.35356 104.583 5.75415 103.28C6.2048 101.847 6.76561 99.6627 7.71701 100.424ZM29.8493 36.9188C30.4603 35.9168 32.2429 36.0271 32.2429 37.6201C32.2429 40.9267 28.6376 38.9127 29.8493 36.9188ZM139.669 85.6952C138.339 85.5851 137.888 83.8716 140.111 83.2304C142.153 82.6392 141.783 85.8756 139.669 85.6952ZM7.14619 164.2C8.09757 163.299 8.94881 164.501 9.37944 164.972C11.3623 169.32 5.18331 166.064 7.14619 164.2ZM143.576 153.86C145.008 153.249 144.988 156.685 143.025 155.573C142.695 154.992 142.985 154.111 143.576 153.86ZM55.1564 146.476C56.288 146.095 57.3896 148.008 56.0977 148.62C54.8459 149.211 54.1048 146.827 55.1564 146.476ZM202.712 106.917C202.972 106.887 203.243 106.997 203.684 107.088C203.504 107.459 203.443 107.779 203.253 107.909C202.561 108.391 202.101 106.988 202.712 106.917ZM98.8103 103.149C98.65 103.451 98.5899 103.691 98.4397 103.821C97.7887 104.423 97.248 103.08 98.0591 102.98C98.2595 102.96 98.4797 103.069 98.8103 103.149ZM116.977 92.86C117.167 92.7893 117.387 92.84 117.788 92.8293C117.077 94.432 116.366 93.0893 116.977 92.86ZM107.954 84.1923C107.783 84.3827 107.673 84.5831 107.513 84.6632C107.443 84.7033 107.122 84.4728 107.142 84.4027C107.293 83.6112 107.583 83.9517 107.964 84.1923H107.954ZM116.286 2.89145C115.495 1.40852 117.658 0.296387 118.479 1.70918C119.2 2.95158 116.997 4.23412 116.286 2.89145ZM100.653 186.355C100.152 185.061 102.956 184.711 101.975 186.455C101.855 186.675 100.923 187.056 100.653 186.355ZM73.2028 63.7219C73.2328 62.5294 73.2328 61.3471 73.4431 60.6959C74.2944 58.1007 77.3588 59.2229 77.1785 60.7459C76.9383 62.7299 75.3059 62.1587 75.8267 63.4012C76.1671 64.2128 76.5577 64.8941 75.4561 65.3049C74.1441 65.7959 73.1627 65.1145 73.1928 63.7219H73.2028ZM166.319 29.7747C167.501 30.9069 166.068 30.9871 166.059 30.3157C166.059 30.1755 166.189 30.0352 166.319 29.7747ZM198.997 18.0115C199.688 18.5725 199.688 18.292 199.307 19.0535C198.567 18.6527 198.707 18.8831 198.997 18.0115ZM101.755 122.457C101.975 121.445 103.647 120.955 104.439 122.037C105.79 123.911 101.484 123.691 101.755 122.457ZM99.3811 80.3747C99.0505 81.4168 98.4997 81.5471 97.9991 81.1263C96.9776 80.2645 99.8217 79.012 99.3811 80.3747ZM239.647 -0.334946C240.387 0.0458527 240.297 -0.264809 240.537 0.837456C240.557 0.947586 239.527 1.12799 239.416 0.38652C239.385 0.196121 239.536 -0.0342789 239.636 -0.334946H239.647ZM198.556 -22.3685C200.079 -23.13 200.989 -21.6871 200.208 -21.3464C198.916 -20.7853 197.815 -22.0279 198.556 -22.3685ZM255.98 66.3469C256.291 68.6916 254.037 68.5613 254.037 67.0484C254.037 66.2668 255.319 64.8841 255.98 66.3469ZM294.667 -0.755745C294.165 1.07786 293.735 1.03786 294.165 1.72919C294.387 2.06985 292.935 3.83332 293.064 -0.485214C293.104 -1.66748 294.476 -0.835876 294.667 -0.755745ZM184.345 43.8224C184.335 43.562 184.465 43.3015 184.565 42.9107C186.399 43.8425 184.385 44.5539 184.345 43.8224ZM176.855 46.9987C176.755 47.1891 176.704 47.4396 176.544 47.5397C176.273 47.7301 175.863 47.5899 175.833 47.3193C175.813 47.1389 175.953 46.9385 176.073 46.618C176.404 46.7783 176.624 46.8885 176.844 46.9987H176.855ZM192.117 40.6863C192.977 40.2053 193.268 41.8084 192.367 42.1091C191.667 42.3395 191.345 41.1171 192.117 40.6863ZM284.312 41.8285C283.511 40.4657 281.899 40.586 282.449 39.3636C282.88 38.3817 284.151 38.8125 284.131 39.544C284.101 40.9768 285.012 40.6161 285.003 41.3476C285.003 41.9287 284.361 41.9087 284.312 41.8285ZM92.1104 89.4427C92.6112 90.224 91.3293 91.0253 90.8485 90.0333C90.458 89.232 91.6397 88.7013 92.1104 89.4427ZM207.329 26.4581C206.879 26.7187 206.888 25.2256 207.74 25.0753C207.929 25.0453 209.301 25.3359 207.329 26.4581ZM211.605 15.7469C211.745 14.3341 213.317 14.6448 213.248 15.9072C213.177 17.3 211.435 17.4703 211.605 15.7469ZM174.02 36.1072C172.899 36.3777 173.139 34.0531 173.891 34.6243C174.511 35.0952 174.431 36.0069 174.02 36.1072ZM151.177 -3.60135C149.424 -2.23868 147.712 -11.2865 151.337 -5.11441C151.697 -4.50321 151.768 -4.06228 151.177 -3.60135ZM91.0789 22.1496C90.7785 21.6687 91.6297 20.8771 92.2907 21.0173C93.8529 21.358 91.7699 23.2517 91.0789 22.1496ZM150.055 65.0244C148.993 62.9803 152.809 62.8801 152.699 65.6556C152.639 66.9983 150.967 66.7577 150.055 65.0244ZM197.625 15.7469C197.073 16.2079 196.213 15.296 196.913 14.7649C197.504 14.3241 198.627 14.9153 197.625 15.7469ZM171.937 40.8465C171.427 40.7364 171.367 39.9648 172.128 39.8947C172.859 40.7564 172.048 40.8667 171.937 40.8465ZM47.5152 67.5695C48.2663 69.0223 46.2533 69.7537 45.5423 68.2908C44.9815 67.1285 46.8843 66.3469 47.5152 67.5695ZM104.919 -19.4025C103.908 -20.114 104.609 -22.2181 105.72 -21.7072C107.183 -21.0259 106.041 -18.6211 104.919 -19.4025ZM169.263 102.328C168.632 102.588 168.041 101.427 169.203 100.956C170.064 101.577 169.704 102.148 169.263 102.328ZM161.132 -39.6827C160.06 -41.5163 163.264 -43.7307 163.215 -42.1276C163.164 -40.4242 161.892 -38.3801 161.132 -39.6827ZM84.5795 46.8985C83.9084 47.7603 83.4979 47.1591 83.4879 46.8184C83.4677 46.2472 84.3391 46.0669 84.5795 46.8985Z" fill="#A03137"/>
<path d="M1571.17 15.5607C1571.17 15.5607 1560.09 14.6952 1556.95 17.8401C1553.8 20.9851 1517.33 52.8357 1505.29 68.5705C1497.8 78.3712 1500 89.5813 1503.43 97.304C1498.13 97.7573 1489.72 98.572 1487.39 99.3453C1483.91 100.507 1490.77 103.48 1491.89 105.699C1493.01 107.917 1490.32 109.541 1493.41 111.66C1496.51 113.777 1501.39 115.161 1501.08 116.312C1500.76 117.467 1502.57 123.537 1504.68 119.153C1506.05 116.307 1507.83 110.161 1508.91 106.2C1508.99 106.277 1509.05 106.352 1509.12 106.411C1512.01 109.164 1523 110.525 1523 110.525C1523 110.525 1531.48 109.255 1538.76 103.812C1546.04 98.3627 1596.87 49.2879 1596.87 49.2879L1571.19 15.5512L1571.17 15.5607Z" fill="#A13137"/>
<path d="M1555.6 49.3146C1558.37 51.5516 1574.73 65.3447 1594.23 51.3434C1608.28 42.7819 1598.97 17.2028 1582.57 10.9003C1566.35 4.66442 1531.97 30.2379 1555.6 49.3146Z" fill="#DB3339"/>
<path d="M1563.83 42.4187C1564.39 41.7455 1568.56 39.0607 1565.16 33.9695C1563.09 30.3236 1556.01 31.0842 1554.41 35.1442C1552.83 39.1627 1559.04 48.1491 1563.83 42.4187Z" fill="white"/>
<path d="M1593.27 32.2833C1593.05 31.7164 1591.77 28.2639 1587.65 28.6101C1584.81 28.6373 1584.47 34.8467 1586.39 37.1999C1588.29 39.5531 1595.17 37.1389 1593.27 32.2808V32.2833Z" fill="white"/>
<path d="M1582.85 18.6408C1582.59 17.9265 1582.97 14.5165 1577.83 14.9531C1574.29 14.9881 1571.32 19.7909 1573.71 22.7356C1576.08 25.65 1585.24 24.7161 1582.85 18.6503V18.6408Z" fill="white"/>
<path d="M1584.51 46.8371C1584.23 46.1444 1582.68 41.9308 1577.65 42.3549C1574.19 42.3921 1573.23 47.9581 1575.56 50.8335C1577.91 53.7088 1586.83 52.7684 1584.51 46.8371Z" fill="white"/>
<path d="M1579.35 33.9188C1579.2 33.5416 1578.36 31.2645 1575.64 31.492C1573.76 31.5133 1573.24 34.5203 1574.51 36.0813C1575.77 37.6423 1580.6 37.128 1579.35 33.9188Z" fill="white"/>
<path d="M1567.95 23.6728C1567.8 23.2958 1566.96 21.0187 1564.24 21.2462C1562.36 21.2675 1561.84 24.2744 1563.11 25.8355C1564.36 27.3782 1569.2 26.8822 1567.95 23.6728Z" fill="white"/>
<path d="M1515.51 62.5424C1515.51 62.5424 1506.01 71.2823 1504.77 78.6416C1503.52 86.0044 1507.39 95.756 1511.83 98.6854C1511.83 98.6854 1506.44 87.8278 1507.56 81.2656C1508.69 74.7035 1509.2 70.9938 1515.51 62.5424Z" fill="white"/>
<path d="M1607.56 36.9836C1608.12 37.2113 1608.29 36.5553 1607.89 36.338C1607.16 35.9381 1606.92 36.7227 1607.56 36.9836ZM1615.2 25.8433C1614.96 25.6899 1615.31 25.3281 1615.57 25.4271C1615.65 25.4543 1615.65 25.6853 1615.73 25.9565C1615.47 25.9077 1615.31 25.9129 1615.2 25.8433ZM1537.89 137.772C1537.33 138.241 1536.48 137.8 1536.79 137.272C1537.47 136.089 1538.96 136.885 1537.89 137.772ZM1608.43 42.4581C1607.85 41.7025 1609.47 41.5796 1609.04 42.4455C1608.95 42.6569 1608.57 42.6631 1608.43 42.4581ZM1605.57 44.2468C1605.24 44.4512 1604.88 43.926 1605.19 43.5908C1605.56 43.1937 1605.97 43.9979 1605.57 44.2468ZM1565.77 81.3061C1566.12 81.3259 1566.36 81.2951 1566.56 81.3661C1566.93 81.5089 1566.19 82.8768 1565.77 81.3061ZM1573.61 121.82C1573.49 121.733 1573.44 121.516 1573.31 121.239C1573.6 121.205 1573.8 121.127 1573.96 121.18C1574.24 121.275 1574.05 122.108 1573.61 121.82ZM1557.49 105.66C1557.97 106.12 1557.25 106.679 1556.84 106.247C1556.37 105.759 1557.12 105.3 1557.49 105.66ZM1493 103.149C1492.03 102.421 1492.88 102.287 1492.25 100.943C1491.76 99.8987 1493.28 99.48 1493.31 100.42C1493.32 101.06 1492.93 101.333 1493.69 101.335C1496.05 101.329 1494.71 104.437 1493 103.147V103.149ZM1536.92 91.2667C1536.93 91.5 1536.99 91.664 1536.95 91.784C1536.77 92.3253 1535.99 91.6973 1536.41 91.3867C1536.52 91.3093 1536.69 91.316 1536.92 91.2667ZM1628.43 116.535C1629.16 116.967 1628.47 118.156 1627.87 117.571C1627.47 117.172 1627.83 116.184 1628.43 116.535ZM1564.89 154.152C1563.55 153.917 1563.21 152.008 1565.04 152.952C1565.99 153.736 1565.48 154.256 1564.89 154.152ZM1560 103.308C1560.6 102.539 1562.35 103.375 1561.48 103.835C1561.07 104.06 1560.07 103.917 1560 103.308ZM1571.53 137.649C1570.83 136.711 1572.52 135.083 1572.72 135.988C1573 137.337 1572.05 138.345 1571.53 137.649ZM1536.45 118.017C1537.45 117.349 1537.25 119.472 1536.43 119.845C1535.49 120.281 1535.48 118.668 1536.45 118.017ZM1628.13 80.9711C1628.09 81.3637 1626.89 81.6539 1627 80.5348C1627.19 80.4847 1627.41 80.3671 1627.61 80.3845C1627.93 80.412 1628.16 80.7039 1628.13 80.9616V80.9711ZM1586.61 88.856C1587.63 89.5173 1587 91.1747 1586.44 90.5507C1585.72 89.752 1586.07 88.5055 1586.61 88.856ZM1579.39 115.316C1579.21 115.335 1579.04 115.353 1578.77 115.385C1578.79 115.148 1578.63 114.696 1579.32 114.936C1579.37 114.957 1579.36 115.183 1579.39 115.316ZM1599.67 117.895C1599.77 118.521 1599.83 118.328 1599.23 118.533C1599.21 117.856 1599.09 118 1599.67 117.895ZM1592.19 92.372C1592.36 93.7573 1591.23 92.8587 1591.71 92.5027C1591.81 92.4253 1591.97 92.42 1592.19 92.372ZM1515.39 43.2295C1514.49 43.2971 1513.77 41.8304 1515.4 42.3097C1515.75 42.7328 1515.92 43.1896 1515.39 43.2295ZM1547.13 42.3257C1548.05 42.2411 1547.97 41.4853 1548.61 41.7843C1548.87 41.9023 1548.64 42.4861 1548.49 42.4595C1547.6 42.3237 1547.39 43.5669 1546.97 43.1003C1546.77 42.87 1546.73 42.3653 1547.15 42.3319L1547.13 42.3257ZM1516.12 141.545C1516.8 141.061 1517.61 141.42 1517.37 141.885C1516.77 143.085 1515.16 142.249 1516.12 141.545ZM1549.96 92.2547C1549.91 92.2467 1549.88 92.0613 1549.83 91.8613C1550.01 91.8533 1550.17 91.8147 1550.29 91.8587C1550.37 91.8853 1550.51 92.3227 1549.96 92.244V92.2547ZM1547 94.3827C1548.04 93.3253 1548.84 95.6733 1547.45 95.26C1546.97 95.1213 1546.67 94.7213 1547 94.3827ZM1564.85 58.6321C1565.64 58.5701 1565.45 59.1021 1565.32 59.2279C1564.96 59.5715 1564.45 59.1536 1564.85 58.6321ZM1552.8 89.3347C1553.36 89.8147 1552.75 90.588 1552.25 90.0973C1551.8 89.62 1552.33 88.952 1552.8 89.3347ZM1564.16 44.3931C1564.33 43.7779 1565.64 45.0552 1564.84 45.2616C1564.43 45.3773 1564 44.9608 1564.16 44.3931ZM1509.01 120.604C1510.68 120.875 1513.55 122.557 1512 123.217C1511.09 123.615 1509.07 123.935 1508.85 123.008C1508.61 121.985 1508.19 120.468 1509.01 120.604ZM1499.93 74.5221C1499.95 73.7053 1501.04 73.1612 1501.6 74.1269C1502.75 76.1312 1499.91 76.1461 1499.93 74.5221ZM1582.2 66.4464C1581.37 66.8361 1580.51 65.952 1581.6 64.8012C1582.6 63.7425 1583.52 65.8315 1582.2 66.4464ZM1531 159.459C1531.24 158.587 1532.17 159.024 1532.59 159.161C1535.29 161.117 1530.48 161.261 1531 159.459ZM1608.37 106.428C1609.01 105.567 1610.2 107.656 1608.64 107.655C1608.24 107.416 1608.11 106.781 1608.37 106.428ZM1553.29 132.259C1553.84 131.64 1555.16 132.423 1554.6 133.236C1554.07 134.023 1552.79 132.832 1553.29 132.259ZM1627.05 57.7019C1627.2 57.5944 1627.4 57.5685 1627.69 57.4721C1627.71 57.7587 1627.79 57.9736 1627.72 58.1177C1627.48 58.6461 1626.72 57.9537 1627.05 57.7019ZM1564.05 91.032C1564.05 91.2693 1564.11 91.436 1564.07 91.5667C1563.89 92.1533 1563.09 91.5253 1563.55 91.1867C1563.65 91.1053 1563.83 91.0973 1564.05 91.032ZM1571.23 78.5676C1571.32 78.4599 1571.47 78.4148 1571.71 78.2713C1571.84 79.4869 1570.95 78.9167 1571.23 78.5676ZM1562.84 76.4067C1562.81 76.5804 1562.81 76.7397 1562.75 76.8432C1562.72 76.8915 1562.45 76.8616 1562.44 76.8123C1562.24 76.2809 1562.53 76.3879 1562.85 76.4032L1562.84 76.4067ZM1539.33 24.268C1538.35 23.6403 1539.24 22.2247 1540.23 22.7996C1541.09 23.3056 1540.23 24.8381 1539.33 24.268ZM1594.27 140.837C1593.51 140.225 1595.05 139.052 1595.08 140.445C1595.09 140.62 1594.67 141.169 1594.27 140.837ZM1535.05 75.9093C1534.65 75.1763 1534.24 74.4596 1534.13 73.9928C1533.73 72.1279 1535.93 71.7577 1536.36 72.7427C1536.92 74.0277 1535.75 74.2409 1536.49 74.8156C1536.97 75.1909 1537.45 75.4701 1536.93 76.0967C1536.33 76.844 1535.51 76.7673 1535.04 75.9128L1535.05 75.9093ZM1578.45 23.4143C1579.55 23.6955 1578.72 24.2349 1578.48 23.8315C1578.44 23.7464 1578.47 23.6168 1578.45 23.4143ZM1593.73 5.08267C1594.33 5.186 1594.24 5.016 1594.28 5.60801C1593.71 5.61907 1593.87 5.71067 1593.73 5.08267ZM1572.56 101.727C1572.33 101.039 1573.15 100.168 1574 100.552C1575.45 101.224 1572.83 102.567 1572.56 101.727ZM1556.41 77.0309C1556.59 77.7759 1556.31 78.0436 1555.85 77.9601C1554.95 77.788 1556.2 76.0539 1556.41 77.0309ZM1579.33 -19.2436C1579.97 -20.2269 1581.03 -19.6647 1580.68 -19.1904C1580.11 -18.4075 1579.01 -18.7831 1579.33 -19.2436ZM1594.07 25.7508C1593.97 25.5964 1593.96 25.3937 1593.88 25.1225C1595.29 25.0592 1594.35 26.1805 1594.07 25.7508ZM1590.73 30.2439C1590.73 30.3936 1590.8 30.5625 1590.73 30.6783C1590.64 30.8863 1590.35 30.942 1590.24 30.7884C1590.16 30.6859 1590.17 30.5164 1590.13 30.2808C1590.39 30.2647 1590.56 30.256 1590.72 30.2473L1590.73 30.2439ZM1597.59 21.186C1597.92 20.5992 1598.65 21.4715 1598.23 21.9627C1597.89 22.3427 1597.28 21.7115 1597.59 21.186ZM1555.28 85.0199C1555.84 85.322 1555.36 86.2472 1554.73 85.8107C1554.21 85.4587 1554.73 84.7317 1555.28 85.0199ZM1601.64 7.34694C1601.45 7.65934 1600.95 6.75094 1601.4 6.368C1601.49 6.28454 1602.41 5.9904 1601.64 7.34694ZM1600.43 -0.611732C1600.01 -1.51613 1601.05 -1.8668 1601.45 -1.07747C1601.91 -0.2092 1600.93 0.491335 1600.43 -0.611732ZM1585.24 24.6131C1584.67 25.1616 1584 23.6701 1584.64 23.7588C1585.17 23.8315 1585.44 24.4116 1585.24 24.6131ZM1557.77 8.37267C1557.21 9.79947 1553.03 4.90187 1557.35 7.40067C1557.77 7.6476 1557.97 7.8908 1557.77 8.37267ZM1531.11 44.5819C1530.76 44.3933 1530.99 43.6217 1531.44 43.4803C1532.48 43.1512 1531.91 45.0132 1531.11 44.5819ZM1581.13 50.3565C1579.79 49.4813 1582.01 48.1127 1582.92 49.8329C1583.36 50.6673 1582.28 51.0948 1581.13 50.3565ZM1592.12 4.18027C1591.96 4.64854 1591.13 4.39107 1591.36 3.8288C1591.56 3.35907 1592.43 3.33294 1592.12 4.18027ZM1585.65 28.2C1585.32 28.3083 1585.01 27.8612 1585.44 27.5577C1586.17 27.8295 1585.73 28.1744 1585.65 28.2ZM1521.15 87.0465C1522.09 87.6699 1521.16 88.8027 1520.23 88.1601C1519.48 87.6477 1520.35 86.5219 1521.15 87.0465ZM1524.79 14.65C1523.93 14.5655 1523.61 13.0496 1524.45 12.9784C1525.56 12.8903 1525.72 14.7392 1524.79 14.65ZM1605.59 66.3853C1605.31 66.7595 1604.55 66.2575 1605.07 65.5737C1605.8 65.6551 1605.79 66.1249 1605.59 66.3853ZM1551.07 -16.9111C1549.79 -17.6553 1550.91 -20.0961 1551.44 -19.1071C1552.01 -18.0573 1551.97 -16.3824 1551.07 -16.9111ZM1535.92 61.812C1535.81 62.5643 1535.36 62.3407 1535.24 62.1376C1535.03 61.7981 1535.48 61.3903 1535.92 61.812Z" fill="#D93339"/>
<path d="M1755.19 10.6166C1769.4 10.5632 1779.83 14.5623 1779.31 34.0419C1779 46.0666 1766.77 58.3544 1752.56 58.5079C1737.89 58.6612 1726.76 47.2064 1726.55 35.203C1726.33 23.1995 1736.95 10.69 1755.17 10.621L1755.19 10.6166Z" fill="#A13137"/>
<path d="M1754.85 13.9392C1769.07 13.8859 1779.49 17.8849 1778.99 37.3645C1778.67 49.3892 1766.44 61.6771 1752.23 61.8306C1737.56 61.9839 1726.44 50.5291 1726.21 38.5256C1726 26.5221 1736.63 14.0127 1754.85 13.9436V13.9392Z" fill="#DB3339"/>
<path d="M1748.68 44.1787C1748.68 44.1787 1740 45.7601 1737.23 46.2372C1734.45 46.7164 1732.97 47.1705 1732.15 46.2883C1731.33 45.4061 1730.57 44.1748 1730.57 44.1748C1730.57 44.1748 1729.51 40.3372 1729.67 38.4999C1729.83 36.6625 1731.79 36.4657 1731.79 36.4657C1731.79 36.4657 1747.8 39.4243 1748.09 38.478C1748.39 37.5316 1747.25 36.5292 1745.35 33.6884C1743.44 30.8475 1739.45 25.586 1739.17 23.8913C1738.89 22.2012 1739.55 20.7189 1740.72 20.0991C1741.88 19.4748 1745.51 18.5036 1746.51 18.8088C1747.51 19.114 1749 19.9747 1749 19.9747C1749 19.9747 1750.96 36.16 1751.03 36.5596C1751.09 36.9592 1752.53 36.9121 1752.61 36.4009C1752.69 35.8899 1756.19 21.0748 1756.77 20.4087C1757.35 19.7425 1760.41 18.8287 1761.99 19.6819C1763.55 20.5351 1765.47 21.2531 1765.56 22.3557C1765.64 23.4584 1763.77 26.1772 1763.77 26.1772C1763.77 26.1772 1757.69 35.3845 1758.01 36.2623C1758.33 37.1399 1768.67 27.1037 1770.25 26.1345C1771.85 25.1652 1773.27 25.0253 1774.29 26.8412C1775.31 28.6569 1776.09 34.144 1776.09 34.144L1775.6 38.1384C1775.6 38.1384 1760.8 39.8257 1759.89 41.0303C1758.99 42.2347 1770.73 45.8088 1770.39 47.4611C1770.05 49.1135 1767.64 52.49 1764.69 53.4961C1761.73 54.5021 1760.88 52.9684 1760.44 52.0025C1760 51.0321 1757.2 44.662 1757.2 44.662C1757.2 44.662 1756.19 44.7455 1756.03 46.0776C1755.87 47.4097 1757.75 56.1203 1757.75 56.1203C1757.75 56.1203 1757.15 57.2925 1756.09 57.2992C1755.05 57.3059 1751.79 58.3376 1749.73 57.6345C1747.68 56.9289 1749 54.1692 1749.51 51.692C1750.01 49.2147 1751.95 46.5931 1751.15 46.5705C1750.33 46.548 1746.13 53.6439 1744.67 53.9999C1743.19 54.356 1740.21 54.0432 1738.89 52.8604C1737.57 51.6776 1739.03 50.5184 1741.6 48.9445C1744.17 47.3707 1748.68 44.1896 1748.68 44.1896V44.1787Z" fill="#E6BB95"/>
<path d="M1731.88 28.6017C1731.81 28.1912 1731.39 28.3621 1731.4 28.6749C1731.44 29.2569 1731.96 29.0727 1731.88 28.6017ZM1708 26.8352C1707.33 26.7824 1707.01 26.0199 1707.45 25.8285C1708.35 25.4441 1708.68 26.8875 1708 26.8352ZM1695.16 83.6808C1696.08 83.1729 1696.03 83.4938 1696.16 84.7858C1695.77 86.7187 1694.27 84.1813 1695.16 83.6808ZM1722.88 28.7869C1722.88 28.9853 1722.55 28.9356 1722.51 28.7457C1722.49 28.6897 1722.63 28.592 1722.75 28.4379C1722.81 28.6089 1722.88 28.6997 1722.88 28.7869ZM1813.59 27.2379C1814.05 27.3659 1814.11 28.0277 1813.69 28.0733C1812.79 28.1628 1812.71 26.9967 1813.59 27.2379ZM1734.67 25.8827C1734.44 26.5141 1733.8 25.6539 1734.44 25.5405C1734.6 25.5112 1734.73 25.7141 1734.67 25.8827ZM1736.69 26.7811C1736.92 26.8833 1736.76 27.3052 1736.45 27.2629C1736.11 27.2167 1736.41 26.6531 1736.69 26.7811ZM1771.77 34.3396C1771.67 34.1359 1771.56 34.0144 1771.53 33.872C1771.48 33.5959 1772.52 33.4697 1771.77 34.3396ZM1791.87 13.4165C1791.87 13.5256 1791.76 13.6396 1791.65 13.83C1791.53 13.6747 1791.41 13.5973 1791.39 13.4853C1791.35 13.2849 1791.88 13.0565 1791.87 13.4165ZM1788.48 29.1483C1788.56 28.6887 1789.13 28.8683 1789.04 29.2803C1788.93 29.7472 1788.4 29.5067 1788.48 29.1483ZM1809.99 66.826C1809.92 67.6723 1809.53 67.2439 1809 68.1495C1808.59 68.8533 1807.81 68.1565 1808.33 67.7591C1808.69 67.4915 1808.99 67.6016 1808.72 67.1723C1807.87 65.8294 1810.11 65.3303 1809.99 66.824V66.826ZM1787.65 46.6908C1787.79 46.5867 1787.85 46.4895 1787.95 46.4637C1788.31 46.3459 1788.24 47.0508 1787.91 46.9273C1787.83 46.8985 1787.77 46.7988 1787.65 46.6908ZM1769.4 -15.5888C1769.39 -16.1764 1770.31 -16.2703 1770.19 -15.6917C1770.11 -15.3001 1769.41 -15.106 1769.4 -15.5888ZM1813.24 5.23935C1813.59 6.10068 1812.63 7.06174 1812.51 5.63828C1812.61 4.78361 1813.09 4.86108 1813.24 5.23935ZM1786.25 28.6815C1785.61 28.6516 1785.45 27.3169 1786.03 27.6229C1786.31 27.7688 1786.57 28.396 1786.25 28.6815ZM1801.56 8.16908C1801.28 8.94934 1799.76 8.65388 1800.2 8.17308C1800.85 7.46188 1801.76 7.59055 1801.56 8.16908ZM1706.51 35.0037C1706.53 35.4425 1705.8 35.6128 1705.73 35.0645C1705.68 34.4988 1706.48 34.4519 1706.51 35.0037ZM1802.93 36.0845C1802.2 35.7863 1803.48 35.0435 1803.97 35.3549C1804.56 35.7107 1803.65 36.3727 1802.93 36.0845ZM1749.43 -0.964655C1749.65 -1.10439 1750.25 -0.537991 1749.57 -0.148523C1749.48 -0.233323 1749.33 -0.30919 1749.27 -0.434656C1749.17 -0.626123 1749.27 -0.871989 1749.41 -0.962122L1749.43 -0.964655ZM1720.64 20.886C1720.79 20.8643 1720.84 20.9659 1720.81 21.0957C1720.8 21.1617 1720.72 21.2201 1720.61 21.3407C1720.55 21.2043 1720.33 20.9335 1720.64 20.8796V20.886ZM1768.63 19.4265C1768.64 18.5808 1769.8 18.2637 1769.65 18.8353C1769.45 19.5701 1768.63 19.8777 1768.63 19.4265ZM1786.15 12.7823C1786.23 12.8725 1786.29 12.9628 1786.4 13.1011C1786.27 13.1948 1786.07 13.4679 1785.96 12.9765C1785.95 12.9333 1786.08 12.8487 1786.15 12.7823ZM1780.4 0.209478C1780.72 -0.106256 1780.59 -0.0586548 1780.91 0.195745C1780.53 0.481745 1780.67 0.493212 1780.4 0.209478ZM1724.13 17.7085C1723.89 17.524 1724.4 17.0136 1724.8 17.2671C1725.04 17.4252 1724.51 17.9932 1724.13 17.7085ZM1711.96 6.59801C1713.41 7.23841 1712.64 8.82628 1711.79 8.30734C1710.79 7.70628 1711.09 6.21695 1711.96 6.59801ZM1729.59 0.913076C1729.43 1.42854 1729.17 1.28374 1729.28 1.86881C1729.39 2.39988 1728.68 2.64054 1728.53 2.28601C1728.37 1.90574 1728.79 1.66148 1728.89 1.47361C1729.2 0.925346 1728.99 0.722012 1728.89 0.120544C1728.79 -0.612655 1729.88 0.00387764 1729.59 0.911077V0.913076ZM1768.64 14.8341C1769.36 14.168 1769.25 15.1793 1768.88 15.0533C1768.8 15.0245 1768.75 14.9337 1768.64 14.8341ZM1718.61 -4.23145C1719.35 -4.25359 1719.41 -4.11066 1719.56 -4.74332C1719.6 -4.86666 1719.64 -4.95599 1719.69 -5.02386C1719.87 -5.01292 1720.05 -4.99546 1720.23 -4.99092C1720.23 -4.99092 1720.24 -4.98906 1720.24 -4.98452C1720.44 -3.89626 1720.39 -3.60226 1720.21 -3.49319C1719.28 -2.93479 1719.32 -1.94559 1718.85 -2.45452C1717.81 -3.56386 1718.21 -4.22306 1718.6 -4.23346L1718.61 -4.23145ZM1768.17 78.4523C1768.53 78.9299 1767.96 79.9396 1767.65 78.8216C1767.77 78.4523 1767.97 78.1663 1768.17 78.4523ZM1756.39 60.7732C1756.01 60.2858 1755.61 60.6381 1755.55 60.1572C1755.53 59.9624 1755.93 59.8535 1755.97 59.9496C1756.21 60.5089 1757 60.1275 1756.88 60.5513C1756.81 60.7609 1756.55 60.9875 1756.39 60.7688V60.7732ZM1707.93 43.3571C1707.64 43.0357 1707.75 42.7497 1707.99 42.5401C1708.47 42.1029 1708.68 43.1972 1707.93 43.3571ZM1823.45 38.0776C1822.95 37.8929 1822.85 37.2871 1823.2 37.2292C1824.09 37.0861 1824.2 38.3405 1823.45 38.0776ZM1783.59 38.8824C1783.6 38.9103 1783.51 39.0019 1783.41 39.1175C1783.33 39.0099 1783.25 38.9393 1783.24 38.8531C1783.23 38.7971 1783.43 38.5393 1783.57 38.8849L1783.59 38.8824ZM1785.84 39.6981C1784.87 39.5333 1785.91 38.1241 1786.17 39.0811C1786.27 39.4077 1786.15 39.7508 1785.84 39.6981ZM1759.29 44.0736C1758.99 43.6551 1759.35 43.5481 1759.47 43.5729C1759.79 43.636 1759.73 44.0961 1759.29 44.0736ZM1780.92 38.4543C1781 37.9348 1781.65 37.9751 1781.55 38.4485C1781.44 38.9067 1780.87 38.8708 1780.92 38.4543ZM1751.49 50.2568C1751.09 50.4113 1751.35 49.1487 1751.75 49.5152C1751.96 49.7096 1751.87 50.1145 1751.49 50.2568ZM1814.15 50.6305C1813.72 49.5753 1813.64 47.2631 1814.56 47.8681C1815.12 48.2253 1816.01 49.2473 1815.57 49.748C1815.08 50.2967 1814.37 51.1581 1814.15 50.6305ZM1791.35 74.5216C1790.88 74.8467 1790.19 74.4444 1790.53 73.7351C1791.25 72.2628 1792.28 73.8739 1791.35 74.5216ZM1757.55 31.0435C1758.05 31.3564 1757.87 32.2087 1756.83 32.0536C1755.87 31.9121 1756.73 30.5445 1757.55 31.0435ZM1828.29 22.3468C1827.71 22.5599 1827.63 21.8557 1827.55 21.5608C1827.69 19.2316 1829.49 21.9059 1828.29 22.3468ZM1770.83 -0.0813236C1770.11 -0.0929241 1770.87 -1.61919 1771.43 -0.735056C1771.43 -0.410923 1771.12 -0.0758572 1770.83 -0.0813236ZM1805 20.7263C1804.45 20.6715 1804.43 19.6011 1805.08 19.5849C1805.72 19.5697 1805.49 20.7784 1805 20.7263ZM1736.65 9.10295C1736.55 9.06481 1736.47 8.96214 1736.31 8.83468C1736.45 8.70534 1736.55 8.57441 1736.65 8.55414C1737.04 8.47694 1736.92 9.19281 1736.65 9.10295ZM1777.88 31.3677C1778.01 31.2656 1778.09 31.1704 1778.17 31.1423C1778.57 31.0035 1778.51 31.7085 1778.15 31.5924C1778.07 31.5616 1778 31.4689 1777.88 31.3677ZM1768.29 32.35C1768.2 32.3436 1768.12 32.2776 1767.96 32.2027C1768.59 31.6297 1768.59 32.3684 1768.29 32.35ZM1770.05 37.9971C1770.16 37.946 1770.25 37.8785 1770.33 37.8747C1770.37 37.8707 1770.45 38.0368 1770.43 38.064C1770.19 38.3868 1770.15 38.1775 1770.04 37.9951L1770.05 37.9971ZM1748.96 72.5459C1748.95 73.3629 1747.83 73.4296 1747.81 72.6377C1747.79 71.9417 1748.96 71.8072 1748.96 72.5459ZM1795.28 -6.04492C1795.2 -5.37012 1793.99 -5.76959 1794.76 -6.35146C1794.87 -6.42586 1795.32 -6.41079 1795.28 -6.04492ZM1779.65 53.9972C1779.37 54.5221 1779.12 55.0487 1778.89 55.297C1777.99 56.2839 1776.99 55.1769 1777.39 54.5345C1777.92 53.6988 1778.45 54.2766 1778.52 53.6201C1778.56 53.1914 1778.55 52.8105 1779.08 52.8459C1779.72 52.8872 1779.97 53.3851 1779.65 53.9992V53.9972ZM1734.57 50.6623C1734.33 49.924 1734.93 50.1721 1734.79 50.4729C1734.76 50.5355 1734.68 50.5721 1734.57 50.6623ZM1718.77 49.4252C1718.63 49.0384 1718.56 49.1633 1718.88 48.8997C1719.09 49.2249 1719.09 49.0945 1718.77 49.4252ZM1780.91 22.1872C1780.59 22.5941 1779.81 22.4813 1779.72 21.8428C1779.59 20.7407 1781.28 21.692 1780.91 22.1872ZM1772.69 41.3953C1773.05 40.9969 1773.29 41.048 1773.41 41.3347C1773.64 41.9207 1772.21 41.9148 1772.69 41.3953ZM1698.33 49.5397C1698.12 49.2233 1698.08 49.3795 1698.23 48.8411C1698.24 48.788 1698.69 48.9121 1698.59 49.2641C1698.55 49.3548 1698.44 49.4277 1698.33 49.5417V49.5397ZM1710.16 67.492C1709.37 67.5295 1709.32 66.7064 1709.71 66.7095C1710.36 66.7156 1710.53 67.4871 1710.16 67.492ZM1706.25 16.6127C1706.64 15.5071 1707.53 16.0116 1707.2 16.6853C1707.03 17.0332 1706.21 17.3949 1706.25 16.6127ZM1675.97 38.8252C1676.57 38.108 1676.75 38.2112 1676.72 37.818C1676.71 37.6227 1677.68 37.1252 1676.68 39.0223C1676.41 39.5408 1676.03 38.8987 1675.97 38.8252ZM1730.33 40.8357C1730.28 40.9536 1730.17 41.0439 1730.05 41.198C1729.51 40.42 1730.48 40.502 1730.33 40.8357ZM1734.05 40.9056C1734.15 40.8408 1734.21 40.7391 1734.31 40.7263C1734.45 40.6951 1734.59 40.8389 1734.55 40.9653C1734.51 41.0496 1734.41 41.1111 1734.29 41.23C1734.2 41.0931 1734.13 41.0004 1734.07 40.9076L1734.05 40.9056ZM1726.51 40.6923C1726.05 40.7357 1726.28 39.9644 1726.72 40.0091C1727.05 40.0455 1726.91 40.6532 1726.51 40.6923ZM1689.45 21.916C1689.48 22.6816 1690.16 22.9475 1689.67 23.3827C1689.28 23.7345 1688.85 23.2907 1689.03 22.9689C1689.35 22.3369 1688.89 22.3169 1689.07 21.9933C1689.19 21.7345 1689.44 21.8704 1689.45 21.916ZM1777.6 38.7984C1777.57 38.3512 1778.27 38.2483 1778.24 38.7852C1778.23 39.2195 1777.64 39.2219 1777.6 38.7984ZM1717.25 44.0133C1717.49 43.9865 1717.16 44.6493 1716.79 44.5476C1716.69 44.5233 1716.2 44.122 1717.25 44.0133ZM1713.19 47.9352C1712.81 48.5365 1712.25 48.0867 1712.56 47.5384C1712.88 46.9321 1713.63 47.2016 1713.19 47.9352ZM1732.83 46.3168C1733.35 46.4185 1732.75 47.406 1732.56 47.0028C1732.41 46.6701 1732.64 46.28 1732.83 46.3168ZM1733.41 68.5236C1734.43 68.264 1733.15 72.632 1733.03 69.1655C1733.01 68.8219 1733.08 68.6117 1733.41 68.5236ZM1763.35 68.9656C1763.37 69.2393 1762.85 69.4231 1762.61 69.2296C1762.05 68.7684 1763.32 68.338 1763.35 68.9656ZM1748.84 38.1896C1748.81 39.3101 1747.25 38.5987 1747.91 37.3847C1748.21 36.7988 1748.84 37.2372 1748.84 38.1896ZM1718.84 50.7053C1719.16 50.6092 1719.32 51.1859 1718.92 51.2835C1718.57 51.3627 1718.25 50.8772 1718.84 50.7053ZM1734.71 44.6193C1734.89 44.7696 1734.75 45.1249 1734.43 45.0053C1734.32 44.4768 1734.67 44.5885 1734.71 44.6193ZM1790.88 57.3739C1790.89 56.5781 1791.87 56.6512 1791.84 57.4435C1791.81 58.0722 1790.87 58.0431 1790.88 57.3739ZM1748.69 84.7248C1748.95 85.2419 1748.2 86.0399 1747.87 85.5921C1747.43 84.9991 1748.41 84.1545 1748.69 84.7248ZM1749.2 17.7739C1749.51 17.7829 1749.49 18.4175 1748.92 18.3971C1748.71 17.9497 1748.97 17.7669 1749.2 17.7739ZM1721.52 82.6167C1721.56 83.6455 1719.77 83.9964 1720.15 83.2925C1720.55 82.544 1721.51 81.8859 1721.52 82.6167ZM1771.37 59.2337C1771.84 58.9831 1771.87 59.332 1771.8 59.4857C1771.68 59.744 1771.29 59.6517 1771.37 59.2337Z" fill="#E5BA94"/>
<path d="M1741.32 188.948C1741.32 188.948 1754.23 179.096 1760.96 182.008C1767.68 184.911 1778.44 184.456 1815.84 220.425C1853.23 256.396 1841.19 286.351 1828.84 307.527C1816.49 328.703 1767.52 345.421 1748.72 341.737C1729.91 338.053 1682.69 312.039 1671.41 283.467L1741.32 188.957V188.948Z" fill="#DB3339"/>
<path d="M1755.56 265.748C1729.81 293.688 1703.59 315.12 1676.85 290.679C1660.36 275.597 1665.13 236.836 1690.76 208.775C1717.2 179.833 1753.68 171.793 1771.11 185.815C1788.53 199.836 1788.59 229.912 1755.56 265.748ZM1827.48 207.839L1865.12 191.685L1852.97 172.652L1819.4 197.396L1801.32 165.856L1808.11 194.463L1777.71 183.584L1801.79 210.78L1790.97 229.171L1817.68 223.456L1836.77 258.247L1831.85 222.596L1857.63 229.201L1827.47 207.829L1827.48 207.839Z" fill="#A13137"/>
<path d="M1827.27 262.807C1827.27 262.807 1829.8 278.827 1825.39 292.585C1820.96 306.344 1790.73 313.683 1790.73 313.683C1790.73 313.683 1828.19 288.065 1827.27 262.807Z" fill="white"/>
<path d="M1721.47 222.429C1721.47 222.429 1735.01 203.496 1739.37 197.473C1743.72 191.451 1745.76 188.023 1748.51 187.46C1751.24 186.907 1754.37 186.9 1754.37 186.9C1754.37 186.9 1761.75 189.445 1764.07 191.951C1766.4 194.456 1763.09 198.569 1763.09 198.569C1763.09 198.569 1729.8 226.391 1730.61 228.105C1731.43 229.82 1734.91 228.808 1742.4 228.492C1749.89 228.175 1764.63 226.688 1767.53 228.179C1770.43 229.669 1771.35 232.729 1770.12 235.764C1768.88 238.799 1763.68 247.081 1761.43 248.664C1759.16 250.245 1755.23 252.151 1755.23 252.151C1755.23 252.151 1728.71 236.521 1728 236.172C1727.31 235.824 1724.76 238.7 1725.35 239.471C1725.93 240.243 1740.61 264.921 1740.49 266.851C1740.37 268.779 1736.09 275.916 1732.05 277.952C1728 279.979 1723.48 282.9 1721.77 281.737C1720.05 280.576 1719.59 273.64 1719.59 273.64C1719.59 273.64 1717.57 250.641 1715.73 250.224C1713.89 249.807 1709.36 282.145 1707.85 286.425C1706.33 290.707 1703.96 293.663 1699.52 293.472C1695.08 293.28 1685.88 288.219 1685.88 288.219L1681.09 282.464C1681.09 282.464 1705.61 251.391 1705.56 248.167C1705.51 244.944 1679.07 263.684 1677.35 261.027C1675.64 258.368 1675.23 249.575 1679.15 242.579C1683.09 235.592 1686.83 235.735 1689 236.052C1691.16 236.368 1705.31 238.52 1705.31 238.52C1705.31 238.52 1707.03 236.427 1705.43 234.512C1703.83 232.599 1688.05 225.813 1688.05 225.813C1688.05 225.813 1687.47 223.224 1689.37 221.163C1691.28 219.1 1695.72 211.46 1700.45 208.277C1705.19 205.096 1706.72 210.985 1709.32 214.976C1711.91 218.967 1712.11 225.904 1713.6 224.355C1715.09 222.805 1712.65 206.033 1714.84 202.705C1717.03 199.379 1722.87 193.924 1726.95 192.761C1731.01 191.599 1730.01 195.857 1727.57 202.791C1725.13 209.723 1721.44 222.411 1721.44 222.411L1721.47 222.429Z" fill="#E6BB95"/>
<path d="M1766.19 272.955C1766.25 274.137 1767.6 274.08 1767.65 273.213C1767.75 271.596 1766.11 271.597 1766.19 272.955ZM1837.23 300.372C1839.23 301.152 1839.91 303.524 1838.51 303.621C1835.71 303.827 1835.19 299.584 1837.23 300.372ZM1895.33 158.029C1892.4 158.541 1892.68 157.723 1892.73 154.087C1894.55 149.192 1898.2 157.519 1895.33 158.029ZM1793.27 280.981C1793.35 280.444 1794.31 280.889 1794.36 281.441C1794.37 281.605 1793.96 281.749 1793.52 282.049C1793.39 281.521 1793.23 281.216 1793.27 280.981ZM1756.91 277.699C1757.79 276.195 1759.41 279.137 1757.45 278.841C1756.99 278.773 1756.65 278.097 1756.91 277.699ZM1751.13 273.337C1750.48 272.841 1751.12 271.852 1752 272.252C1753.05 272.712 1751.93 273.955 1751.13 273.337ZM1648.51 219.576C1648.76 220.235 1649.03 220.661 1649.07 221.076C1649.15 221.88 1645.97 221.236 1648.51 219.576ZM1581 257.411C1581.05 257.117 1581.4 256.908 1581.8 256.493C1582.12 257.033 1582.43 257.351 1582.47 257.679C1582.53 258.269 1580.84 258.379 1581 257.411ZM1638.4 357.531C1638.23 359.14 1635.45 358.529 1636 357.068C1636.39 356.08 1638.52 356.204 1638.4 357.531ZM1844.52 279.585C1844.59 278.367 1846.85 278.601 1846.84 280.147C1846.83 281.741 1844.41 281.115 1844.52 279.585ZM1703.37 336.705C1702.63 336.864 1701.05 334.764 1703.2 334.343C1703.45 334.663 1703.87 335.005 1704.01 335.407C1704.24 336.019 1703.89 336.607 1703.4 336.705H1703.37ZM1797.24 304.568C1796.83 304.497 1796.68 304.164 1796.8 303.837C1796.87 303.671 1797.13 303.591 1797.49 303.363C1797.64 303.793 1798.19 304.732 1797.24 304.587V304.568ZM1652.79 263.093C1652.45 265.381 1648.87 265.144 1649.52 263.736C1650.36 261.923 1652.95 261.872 1652.79 263.093ZM1597.95 264.564C1597.76 264.252 1597.57 263.939 1597.28 263.456C1597.72 263.331 1598.41 262.776 1598.59 264.217C1598.59 264.343 1598.17 264.448 1597.95 264.564ZM1610.85 304.181C1609.8 304.741 1610.21 304.733 1609.31 303.732C1610.53 303.311 1610.17 303.161 1610.85 304.181ZM1785.69 309.904C1786.35 310.633 1784.63 311.532 1783.53 310.471C1782.85 309.809 1784.65 308.772 1785.69 309.904ZM1818.37 351.629C1814.24 348.511 1817.08 344.921 1819.47 347.143C1822.27 349.725 1820.85 353.487 1818.37 351.629ZM1763.52 350.381C1764.2 349.137 1764.89 349.768 1764.76 348.073C1764.64 346.535 1766.84 346.548 1767.16 347.652C1767.51 348.833 1766.17 349.103 1765.8 349.517C1764.69 350.719 1765.27 351.473 1765.32 353.189C1765.39 355.285 1762.33 352.577 1763.52 350.389V350.381ZM1651.17 275.568C1648.79 276.699 1649.45 274.048 1650.52 274.74C1650.75 274.896 1650.91 275.2 1651.17 275.568ZM1794.68 374.761C1792.47 374.125 1792.32 373.676 1791.64 375.249C1791.51 375.556 1791.35 375.757 1791.16 375.891C1790.63 375.691 1790.08 375.469 1789.55 375.288C1789.55 375.288 1789.55 375.28 1789.55 375.269C1789.32 372.121 1789.56 371.364 1790.15 371.241C1793.12 370.601 1793.32 367.872 1794.57 369.704C1797.29 373.699 1795.89 375.119 1794.69 374.771L1794.68 374.761ZM1674.49 103.1C1673.6 101.467 1675.65 99.2613 1676.19 102.591C1675.72 103.485 1675.04 104.077 1674.49 103.1ZM1703.79 162.32C1704.75 164 1706.07 163.419 1706.07 164.779C1706.08 165.333 1704.8 165.24 1704.72 164.943C1704.2 163.197 1701.73 163.496 1702.23 162.455C1702.47 161.939 1703.36 161.58 1703.79 162.331V162.32ZM1843.12 255.531C1843.89 256.683 1843.48 257.361 1842.69 257.705C1841.08 258.433 1840.83 255.259 1843.12 255.531ZM1689.33 204.9C1690.13 206.333 1688.99 206.275 1688.64 206.096C1687.71 205.62 1688.03 204.421 1689.33 204.9ZM1714.85 195.477C1716.13 195.443 1714.93 198.632 1713.85 197.259C1713.28 196.525 1713.68 195.508 1714.85 195.477ZM1690.08 241.981C1688.65 240.643 1689.52 238.508 1692.59 239.913C1695.4 241.203 1692.36 244.109 1690.08 241.981ZM1639.52 313.988C1641.65 314.695 1638.85 318.125 1637.51 315.2C1637.6 314.312 1638.64 313.695 1639.52 313.988ZM1745.17 321.379C1745.49 321.588 1745.72 321.948 1746.15 322.444C1745.64 322.651 1745.32 322.917 1745 322.872C1743.81 322.719 1744.41 320.885 1745.17 321.379ZM1629.19 221.829C1628.76 221.983 1628.49 222.169 1628.23 222.161C1626.99 222.164 1627.45 220.319 1628.47 220.965C1628.71 221.131 1628.88 221.444 1629.19 221.829ZM1658.31 228.245C1658.59 228.349 1658.8 228.603 1659.27 228.963C1657.16 229.916 1657.43 227.913 1658.31 228.245ZM1654.97 211.229C1654.63 211.263 1654.33 211.363 1654.09 211.295C1653.97 211.271 1653.8 210.744 1653.87 210.692C1654.68 210.036 1654.75 210.645 1654.99 211.239L1654.97 211.229ZM1730.17 137.307C1730.47 135.089 1733.84 135.967 1733.64 138.141C1733.47 140.053 1729.91 139.309 1730.17 137.307ZM1564.11 307.04C1564.57 305.281 1568.08 307.513 1565.55 308.359C1565.23 308.469 1563.85 307.993 1564.11 307.04ZM1765.79 210.405C1766.23 212.631 1764.52 211.392 1765.04 210.709C1765.16 210.568 1765.43 210.547 1765.79 210.405ZM1812.72 228.719C1813.05 229.919 1813.28 229.637 1812.23 230.051C1811.71 228.965 1811.68 229.325 1812.72 228.719ZM1616.97 243.923C1618.04 243.109 1620.35 244.159 1620.39 245.973C1620.41 249.101 1615.67 244.911 1616.97 243.923ZM1648.24 199.496C1647.01 200.237 1646.28 199.86 1646.04 198.976C1645.57 197.169 1649.84 198.535 1648.24 199.496ZM1874.09 247.771C1874.64 248.836 1874.79 248.441 1874.17 249.769C1874.11 249.899 1872.79 249.129 1873.25 248.283C1873.37 248.064 1873.73 247.971 1874.09 247.761V247.771ZM1844.81 187.783C1847.17 188.421 1847.05 190.709 1845.89 190.332C1843.96 189.704 1843.69 187.441 1844.81 187.783ZM1838.96 329.755C1837.43 332.395 1834.95 330.187 1836.17 328.668C1836.8 327.884 1839.39 327.677 1838.96 329.755ZM1775.09 241.12C1775.28 240.849 1775.64 240.708 1776.08 240.408C1777.43 243.033 1774.55 241.892 1775.09 241.12ZM1763.95 237.404C1763.67 237.503 1763.41 237.708 1763.15 237.661C1762.68 237.603 1762.33 237.084 1762.51 236.784C1762.64 236.585 1762.96 236.513 1763.36 236.301C1763.6 236.768 1763.76 237.081 1763.93 237.395L1763.95 237.404ZM1786.52 245.136C1787.89 245.447 1786.93 247.324 1785.67 246.795C1784.67 246.38 1785.29 244.857 1786.52 245.136ZM1632.59 201.896C1632.52 203.141 1630.41 202.765 1630.65 201.327C1630.85 200.161 1632.64 200.717 1632.59 201.896ZM1815.44 244.876C1814.72 244.723 1815.93 243.233 1817.03 243.867C1817.27 244.012 1818.6 245.568 1815.44 244.876ZM1828.99 238.067C1830.29 236.777 1831.84 238.539 1830.75 239.741C1829.53 241.075 1827.4 239.64 1828.99 238.067ZM1769.49 223.86C1767.99 223.097 1770.13 220.987 1770.53 222.252C1770.87 223.296 1770.04 224.137 1769.49 223.86ZM1775.39 162.949C1772.28 162.701 1777.63 152.041 1776.79 161.579C1776.71 162.524 1776.44 163.031 1775.39 162.949ZM1685.75 133.403C1685.79 132.643 1687.4 132.633 1688.04 133.383C1689.56 135.165 1685.64 135.145 1685.75 133.403ZM1718.68 230.796C1719.12 227.765 1723.57 231.181 1721.2 233.865C1720.05 235.159 1718.33 233.375 1718.68 230.796ZM1812.97 225.181C1811.97 225.136 1811.72 223.427 1812.95 223.54C1813.99 223.641 1814.79 225.269 1812.97 225.181ZM1763.28 226.697C1762.77 226.116 1763.33 225.285 1764.27 225.917C1764.4 227.456 1763.39 226.819 1763.28 226.697ZM1735.16 104.453C1734.57 102.807 1737.07 101.341 1737.93 102.879C1739.05 104.911 1735.81 106.272 1735.16 104.453ZM1710.56 285.941C1709.63 285.621 1709.89 283.911 1711.6 284.508C1712.09 285.925 1711.21 286.167 1710.56 285.941ZM1815.93 135.909C1816.19 133.081 1821.64 133.812 1820.29 135.376C1818.85 137.039 1815.75 137.919 1815.93 135.909Z" fill="#E5BA94"/>
<path d="M1819.33 304.635C1819.4 305.817 1820.75 305.76 1820.81 304.893C1820.89 303.277 1819.25 303.279 1819.33 304.635ZM1948.48 189.709C1945.56 190.221 1945.84 189.404 1945.89 185.768C1947.69 180.873 1951.35 189.2 1948.48 189.709ZM1846.43 312.663C1846.49 312.125 1847.45 312.569 1847.51 313.121C1847.52 313.285 1847.11 313.429 1846.68 313.729C1846.53 313.201 1846.39 312.897 1846.43 312.663ZM1810.04 309.389C1810.93 307.885 1812.56 310.828 1810.6 310.532C1810.12 310.464 1809.8 309.788 1810.04 309.389ZM1804.28 305.028C1803.61 304.532 1804.27 303.543 1805.15 303.943C1806.2 304.403 1805.08 305.645 1804.28 305.028ZM1701.64 251.265C1701.91 251.925 1702.17 252.351 1702.21 252.767C1702.28 253.571 1699.12 252.927 1701.64 251.265ZM1634.15 289.101C1634.19 288.808 1634.55 288.599 1634.93 288.184C1635.25 288.724 1635.57 289.041 1635.61 289.369C1635.68 289.96 1633.99 290.069 1634.15 289.101ZM1649.76 249.561C1649.33 250.727 1647.68 249.697 1648.12 248.669C1648.6 247.503 1650.09 248.653 1649.76 249.561ZM1658.25 202.657C1657.84 202.82 1657.59 203.016 1657.33 203.007C1656.19 202.977 1656.65 201.132 1657.6 201.781C1657.84 201.936 1657.97 202.261 1658.25 202.657ZM1691.55 389.211C1691.39 390.821 1688.6 390.209 1689.16 388.748C1689.53 387.761 1691.67 387.885 1691.55 389.211ZM1567.23 291.092C1566.48 288.423 1569.71 286.723 1569.56 290.703C1568.95 292.924 1567.55 292.264 1567.23 291.092ZM1656.25 252.931C1658.19 253.627 1658.17 257.396 1656.57 256.025C1655.8 255.369 1655.19 253.403 1656.25 252.931ZM1603.28 294.193C1604.4 292.34 1608.85 294.58 1607.36 295.469C1605.13 296.777 1602.47 295.569 1603.28 294.193ZM1756.53 368.387C1755.79 368.544 1754.2 366.445 1756.36 366.024C1756.6 366.343 1757.01 366.685 1757.16 367.087C1757.39 367.7 1757.04 368.287 1756.55 368.385L1756.53 368.387ZM1850.39 336.248C1849.97 336.179 1849.83 335.844 1849.96 335.519C1850.01 335.351 1850.28 335.271 1850.64 335.043C1850.79 335.473 1851.33 336.412 1850.39 336.268V336.248ZM1705.93 294.775C1705.6 297.061 1702.01 296.824 1702.68 295.417C1703.51 293.604 1706.11 293.552 1705.93 294.775ZM1651.09 296.245C1650.91 295.932 1650.73 295.62 1650.44 295.136C1650.88 295.011 1651.57 294.457 1651.73 295.897C1651.75 296.023 1651.32 296.129 1651.09 296.245ZM1664.01 335.863C1662.96 336.421 1663.36 336.415 1662.47 335.412C1663.69 334.992 1663.32 334.843 1664.01 335.863ZM1838.84 341.584C1839.49 342.313 1837.77 343.212 1836.68 342.151C1836 341.489 1837.8 340.452 1838.84 341.584ZM1816.67 382.061C1817.35 380.819 1818.05 381.449 1817.92 379.755C1817.8 378.215 1820 378.229 1820.32 379.332C1820.65 380.513 1819.32 380.783 1818.95 381.197C1817.85 382.4 1818.41 383.153 1818.47 384.871C1818.55 386.965 1815.48 384.259 1816.68 382.071L1816.67 382.061ZM1704.32 307.248C1701.95 308.379 1702.6 305.728 1703.67 306.421C1703.91 306.576 1704.05 306.881 1704.32 307.248ZM1727.65 134.78C1726.75 133.147 1728.81 130.943 1729.35 134.272C1728.87 135.165 1728.19 135.759 1727.65 134.78ZM1756.95 194.001C1757.89 195.68 1759.21 195.1 1759.21 196.46C1759.23 197.013 1757.96 196.921 1757.88 196.623C1757.35 194.877 1754.88 195.176 1755.37 194.135C1755.63 193.619 1756.52 193.261 1756.93 194.011L1756.95 194.001ZM1896.27 287.211C1897.04 288.364 1896.63 289.041 1895.84 289.385C1894.24 290.115 1893.97 286.939 1896.27 287.211ZM1667.79 227.737C1667.76 227.651 1668.08 227.492 1668.4 227.265C1668.57 227.627 1668.79 227.889 1668.81 228.141C1668.83 228.305 1668.15 228.82 1667.81 227.737H1667.79ZM1661.31 223.387C1664.16 224.753 1660.55 227.596 1660.11 224.749C1659.95 223.775 1660.4 222.949 1661.31 223.387ZM1742.45 236.631C1743.24 238.064 1742.11 238.005 1741.75 237.827C1740.81 237.351 1741.13 236.152 1742.45 236.631ZM1675.61 231.419C1675.24 232.767 1673.28 232.033 1673.76 230.847C1674.23 229.7 1675.92 230.337 1675.61 231.419ZM1767.97 227.208C1769.24 227.173 1768.04 230.363 1766.97 228.989C1766.39 228.256 1766.79 227.239 1767.97 227.208ZM1743.2 273.701C1741.77 272.363 1742.64 270.228 1745.69 271.633C1748.52 272.924 1745.48 275.831 1743.2 273.701ZM1692.63 345.719C1694.76 346.425 1691.97 349.856 1690.61 346.931C1690.71 346.043 1691.75 345.425 1692.63 345.719ZM1597.31 256.809C1598.91 257.471 1598.63 260.407 1596.65 259.829C1594.73 259.269 1595.81 256.192 1597.31 256.809ZM1798.29 353.109C1798.61 353.319 1798.83 353.679 1799.27 354.175C1798.76 354.381 1798.43 354.648 1798.11 354.603C1796.92 354.449 1797.53 352.616 1798.29 353.109ZM1682.29 253.56C1681.88 253.713 1681.61 253.9 1681.33 253.892C1680.11 253.896 1680.56 252.049 1681.57 252.696C1681.83 252.861 1681.99 253.175 1682.29 253.56ZM1711.43 259.976C1711.69 260.08 1711.91 260.335 1712.37 260.693C1710.27 261.647 1710.53 259.644 1711.43 259.976ZM1708.08 242.96C1707.73 242.993 1707.44 243.093 1707.2 243.027C1707.08 243.001 1706.91 242.475 1706.99 242.423C1707.8 241.767 1707.85 242.377 1708.09 242.969L1708.08 242.96ZM1783.28 169.037C1783.57 166.82 1786.95 167.697 1786.75 169.872C1786.57 171.784 1783.01 171.04 1783.28 169.037ZM1617.21 338.771C1617.69 337.012 1621.19 339.245 1618.65 340.091C1618.33 340.2 1616.96 339.724 1617.21 338.771ZM1684.8 190.383C1685.8 189.213 1686.76 188.027 1687.52 187.568C1690.6 185.747 1693.2 189.699 1691.76 191.06C1689.88 192.831 1688.48 190.752 1688.07 192.48C1687.8 193.608 1687.71 194.652 1686.11 194.049C1684.21 193.332 1683.63 191.744 1684.79 190.373L1684.8 190.383ZM1818.89 242.136C1819.33 244.363 1817.63 243.123 1818.16 242.44C1818.27 242.299 1818.53 242.277 1818.89 242.136ZM1865.83 260.449C1866.16 261.649 1866.39 261.368 1865.35 261.781C1864.81 260.696 1864.79 261.056 1865.83 260.449ZM1670.08 275.653C1671.15 274.84 1673.47 275.889 1673.49 277.705C1673.53 280.832 1668.77 276.641 1670.08 275.653ZM1701.35 231.227C1700.12 231.968 1699.39 231.591 1699.16 230.707C1698.68 228.9 1702.95 230.265 1701.35 231.227ZM1897.93 219.513C1900.29 220.152 1900.17 222.44 1899 222.063C1897.07 221.435 1896.8 219.172 1897.93 219.513ZM1828.2 272.852C1828.4 272.581 1828.76 272.439 1829.19 272.139C1830.53 274.764 1827.65 273.623 1828.2 272.852ZM1817.05 269.135C1816.79 269.233 1816.52 269.439 1816.25 269.392C1815.8 269.333 1815.44 268.815 1815.63 268.515C1815.75 268.316 1816.07 268.244 1816.47 268.033C1816.72 268.499 1816.88 268.812 1817.04 269.125L1817.05 269.135ZM1839.64 276.867C1841.01 277.177 1840.05 279.055 1838.77 278.525C1837.79 278.111 1838.4 276.588 1839.64 276.867ZM1685.69 233.627C1685.64 234.872 1683.52 234.496 1683.77 233.057C1683.97 231.892 1685.75 232.448 1685.69 233.627ZM1868.55 276.607C1867.83 276.453 1869.04 274.964 1870.13 275.597C1870.39 275.743 1871.72 277.299 1868.55 276.607ZM1882.09 269.797C1883.4 268.509 1884.95 270.269 1883.85 271.472C1882.64 272.805 1880.51 271.371 1882.09 269.797ZM1822.6 255.591C1821.09 254.828 1823.25 252.717 1823.65 253.983C1823.97 255.028 1823.15 255.868 1822.6 255.591ZM1828.49 194.68C1825.39 194.432 1830.73 183.772 1829.91 193.309C1829.83 194.255 1829.55 194.763 1828.49 194.68ZM1738.85 165.133C1738.89 164.373 1740.51 164.364 1741.16 165.113C1742.67 166.896 1738.76 166.876 1738.85 165.133ZM1771.8 262.527C1772.23 259.496 1776.68 262.912 1774.31 265.597C1773.16 266.889 1771.44 265.107 1771.8 262.527ZM1866.08 256.912C1865.08 256.867 1864.83 255.157 1866.07 255.271C1867.09 255.373 1867.91 257 1866.08 256.912ZM1816.39 258.428C1815.89 257.847 1816.44 257.016 1817.37 257.648C1817.52 259.187 1816.49 258.549 1816.39 258.428ZM1652.27 170.568C1651.96 172.719 1649.05 171.597 1649.43 169.473C1649.72 167.791 1652.53 168.76 1652.27 170.568ZM1788.27 136.184C1787.68 134.537 1790.19 133.072 1791.04 134.609C1792.17 136.641 1788.92 138.003 1788.27 136.184ZM1763.68 317.672C1762.75 317.352 1763 315.641 1764.72 316.24C1765.2 317.657 1764.32 317.897 1763.68 317.672ZM1869.04 167.64C1869.29 164.812 1874.75 165.544 1873.4 167.107C1871.97 168.769 1868.85 169.649 1869.04 167.64ZM1711.43 183.984C1709.96 184.229 1709.97 183.248 1710.24 182.897C1710.68 182.305 1711.81 182.927 1711.43 183.984Z" fill="#D93339"/>
<path d="M426.987 101.289C412.489 100.72 378.448 116.905 371.019 130.681C363.588 144.456 374.357 164.059 388.295 163.283C402.232 162.507 406.599 155.959 406.599 155.959L414.787 174.027C414.787 174.027 443.692 163.012 443.925 160.795C444.16 158.576 433.672 141.705 433.672 141.705C433.672 141.705 449.873 143.024 450.817 130.861C451.763 118.7 441.479 101.867 426.981 101.297L426.987 101.289ZM401.391 148.967C395.135 159.889 386.401 154.065 387.612 149.979C388.823 145.892 396.337 144.277 396.337 144.277L401.385 148.975L401.391 148.967ZM437.627 128.892C441.244 132.479 442.736 139.568 428.229 135.903C428.229 135.903 424.241 128.949 425.028 128.072C425.815 127.195 434.003 125.3 437.627 128.892Z" fill="#DB3339"/>
<path d="M446.78 160.632C446.815 161.401 447.669 161.264 447.711 160.691C447.78 159.624 446.739 159.748 446.78 160.632ZM491.549 173.305C492.809 173.668 493.223 175.172 492.335 175.34C490.565 175.684 490.269 172.94 491.549 173.305ZM529.395 75.6499C527.539 76.204 527.723 75.6467 527.783 73.2592C528.96 69.9156 531.213 75.1019 529.395 75.6499ZM463.869 163.873C463.919 163.515 464.527 163.735 464.552 164.093C464.564 164.2 464.297 164.325 464.023 164.553C463.937 164.217 463.843 164.029 463.869 163.873ZM291.876 130.667C291.027 130.251 291.084 129.033 291.86 129.112C293.609 129.312 293.476 131.451 291.876 130.667ZM440.864 164.441C441.439 163.389 442.443 165.197 441.208 165.149C440.907 165.14 440.707 164.721 440.864 164.441ZM437.244 162.013C436.831 161.737 437.245 161.04 437.805 161.236C438.464 161.46 437.751 162.357 437.244 162.013ZM372.671 134.425C372.833 134.839 372.996 135.097 373.02 135.367C373.06 135.888 371.059 135.703 372.671 134.425ZM329.656 164.268C329.688 164.072 329.915 163.908 330.165 163.607C330.365 163.936 330.56 164.121 330.581 164.333C330.624 164.715 329.549 164.913 329.656 164.268ZM339.835 137.18C339.556 137.976 338.52 137.424 338.8 136.717C339.116 135.916 340.053 136.56 339.835 137.18ZM308.125 60.5376C308.455 59.0348 309.068 59.9593 310.293 58.5343C311.247 57.4267 312.555 58.9955 311.475 59.5071C310.735 59.8491 310.207 59.5337 310.609 60.4159C311.888 63.1784 307.543 63.1939 308.132 60.5428L308.125 60.5376ZM345.565 105.796C345.301 105.933 345.14 106.08 344.977 106.093C344.251 106.16 344.559 104.916 345.156 105.271C345.303 105.355 345.387 105.557 345.565 105.796ZM365.251 225.616C365.137 226.683 363.383 226.489 363.744 225.491C363.991 224.815 365.339 224.736 365.251 225.616ZM287.276 170.567C286.825 168.872 288.876 167.517 288.759 170.136C288.352 171.639 287.472 171.311 287.276 170.567ZM343.921 138.904C345.141 139.216 345.107 141.688 344.104 140.909C343.619 140.536 343.247 139.293 343.921 138.904ZM310.081 169.908C310.8 168.611 313.603 169.747 312.653 170.44C311.235 171.464 309.551 170.872 310.081 169.908ZM496.321 159.133C496.376 158.329 497.811 158.315 497.789 159.328C497.767 160.375 496.249 160.143 496.321 159.133ZM314.131 118.903C315.447 119.733 312.861 120.571 311.988 119.808C310.976 118.936 312.851 118.099 314.131 118.903ZM406.547 207.113C406.071 207.273 405.085 206.015 406.452 205.577C406.611 205.768 406.864 205.963 406.956 206.215C407.093 206.599 406.873 207.009 406.56 207.112L406.547 207.113ZM466.205 179.04C465.943 179.025 465.851 178.817 465.936 178.593C465.975 178.48 466.148 178.407 466.373 178.231C466.461 178.503 466.803 179.077 466.207 179.052L466.205 179.04ZM375.061 162.629C374.837 164.153 372.567 164.265 372.995 163.293C373.536 162.043 375.179 161.816 375.061 162.629ZM340.333 167.685C340.22 167.495 340.107 167.303 339.925 167.008C340.205 166.893 340.647 166.479 340.74 167.411C340.747 167.492 340.477 167.593 340.333 167.685ZM348.216 192.695C347.544 193.14 347.8 193.105 347.24 192.516C348.02 192.148 347.787 192.077 348.216 192.695ZM458.853 183.4C459.265 183.829 458.167 184.547 457.483 183.932C457.059 183.549 458.205 182.735 458.853 183.4ZM479.239 208.316C476.639 206.58 478.469 204.015 479.965 205.292C481.717 206.777 480.791 209.349 479.239 208.316ZM444.516 211.591C444.955 210.725 445.395 211.087 445.325 209.985C445.259 208.985 446.652 208.831 446.847 209.529C447.051 210.279 446.205 210.555 445.967 210.855C445.263 211.725 445.615 212.176 445.636 213.299C445.667 214.667 443.752 213.12 444.523 211.596L444.516 211.591ZM373.951 170.927C372.433 171.847 372.871 170.059 373.541 170.435C373.688 170.519 373.783 170.707 373.951 170.927ZM464.065 225.249C462.671 224.997 462.581 224.713 462.139 225.796C462.052 226.007 461.948 226.151 461.831 226.252C461.492 226.16 461.151 226.057 460.813 225.977C460.813 225.977 460.807 225.972 460.812 225.965C460.692 223.919 460.844 223.404 461.219 223.28C463.105 222.639 463.259 220.833 464.035 221.941C465.728 224.357 464.827 225.393 464.073 225.255L464.065 225.249ZM389.999 56.1176C389.443 55.114 390.761 53.5149 391.076 55.6576C390.769 56.2793 390.331 56.7188 389.999 56.1176ZM408.104 92.756C408.696 93.7867 409.533 93.3067 409.525 94.1987C409.525 94.5613 408.724 94.5947 408.675 94.4067C408.356 93.3 406.791 93.68 407.113 92.9613C407.272 92.604 407.84 92.3027 408.099 92.764L408.104 92.756ZM495.615 143.468C496.096 144.165 495.829 144.641 495.328 144.925C494.305 145.523 494.164 143.46 495.615 143.468ZM275.785 107.156C276.711 107.693 276.727 108.821 276.061 108.789C274.336 108.693 274.447 106.387 275.785 107.156ZM351.412 121.527C351.397 121.472 351.599 121.344 351.8 121.172C351.912 121.395 352.04 121.552 352.053 121.716C352.064 121.823 351.631 122.209 351.425 121.525L351.412 121.527ZM347.344 119.157C349.139 119.841 346.831 121.975 346.568 120.141C346.473 119.515 346.768 118.939 347.344 119.157ZM398.612 121.787C399.104 122.667 398.38 122.713 398.161 122.621C397.569 122.38 397.783 121.571 398.612 121.787ZM356.341 123.356C356.088 124.268 354.852 123.933 355.165 123.12C355.471 122.333 356.541 122.624 356.341 123.356ZM414.836 113.704C415.644 113.587 414.857 115.767 414.191 114.947C413.828 114.509 414.091 113.812 414.836 113.704ZM296.379 88.1577C296.955 90.2387 296.533 94.4453 294.937 92.9867C293.985 92.124 292.524 89.9187 293.487 89.1907C294.553 88.3952 296.089 87.1172 296.379 88.1577ZM345.219 54.0245C346.177 53.6217 347.4 54.6257 346.575 55.77C344.859 58.1451 343.313 54.8281 345.219 54.0245ZM398.813 146.033C397.913 145.263 398.479 143.799 400.408 144.491C402.183 145.127 400.239 147.259 398.813 146.033ZM262.888 133.671C264.039 133.517 264.027 134.823 264.092 135.384C263.261 139.536 260.511 133.992 262.888 133.671ZM366.263 197.021C367.608 197.325 365.811 199.783 364.979 197.965C365.043 197.377 365.708 196.895 366.263 197.021ZM306.572 145.847C307.583 146.16 307.381 148.107 306.136 147.875C304.931 147.651 305.635 145.553 306.572 145.847ZM433.096 193.981C433.299 194.095 433.435 194.315 433.705 194.608C433.383 194.781 433.173 194.98 432.969 194.975C432.224 194.961 432.62 193.715 433.096 193.981ZM360.407 137.373C360.135 137.505 359.967 137.647 359.792 137.663C359.012 137.757 359.32 136.512 359.955 136.861C360.109 136.951 360.211 137.144 360.407 137.373ZM378.795 139.407C378.968 139.455 379.1 139.605 379.393 139.805C378.051 140.588 378.236 139.255 378.795 139.407ZM376.808 128.5C376.587 128.548 376.404 128.635 376.247 128.609C376.176 128.601 376.065 128.269 376.116 128.229C376.635 127.739 376.667 128.135 376.815 128.505L376.808 128.5ZM424.964 74.4249C425.165 72.9493 427.296 73.2727 427.153 74.7135C427.027 75.98 424.779 75.7583 424.964 74.4249ZM318.572 198.093C318.883 196.905 321.079 198.108 319.469 198.851C319.269 198.947 318.403 198.737 318.572 198.093ZM362.461 95.768C363.101 94.9267 363.715 94.0773 364.203 93.7187C366.161 92.296 367.78 94.692 366.861 95.6933C365.659 96.9933 364.783 95.736 364.512 96.8987C364.336 97.6587 364.263 98.3507 363.259 98.0733C362.061 97.7453 361.709 96.748 362.453 95.7627L362.461 95.768ZM446.964 119.691C447.225 121.117 446.156 120.432 446.496 119.944C446.569 119.844 446.736 119.811 446.964 119.691ZM476.541 128.195C476.747 128.956 476.892 128.755 476.224 129.104C475.9 128.432 475.881 128.669 476.541 128.195ZM352.507 152.769C353.189 152.156 354.645 152.672 354.653 153.859C354.652 155.907 351.673 153.515 352.507 152.769ZM372.629 121.311C371.852 121.887 371.388 121.695 371.247 121.133C370.96 119.984 373.653 120.56 372.629 121.311ZM515.26 136.105C515.595 136.763 515.692 136.493 515.292 137.409C515.249 137.499 514.415 137.093 514.721 136.504C514.797 136.351 515.025 136.264 515.253 136.1L515.26 136.105ZM497.169 98.9613C498.659 99.204 498.565 100.713 497.827 100.553C496.608 100.285 496.461 98.8213 497.169 98.9613ZM492.407 192.475C491.413 194.32 489.863 193.057 490.648 191.971C491.053 191.409 492.691 191.081 492.407 192.475ZM555.005 164.347C553.695 165.404 553.407 165.151 553.357 165.871C553.339 166.231 551.38 166.744 553.715 163.709C554.356 162.881 554.911 164.189 555.005 164.347ZM452.628 139.133C452.756 138.941 452.984 138.821 453.259 138.592C454.092 140.212 452.277 139.68 452.628 139.133ZM445.599 137.528C445.428 137.613 445.263 137.767 445.095 137.756C444.803 137.752 444.58 137.439 444.699 137.229C444.777 137.089 444.983 137.017 445.235 136.849C445.389 137.136 445.491 137.329 445.592 137.523L445.599 137.528ZM459.837 140.912C460.705 141.013 460.083 142.316 459.28 142.064C458.656 141.865 459.06 140.821 459.837 140.912ZM525.479 189.561C525.609 188.167 524.388 187.417 525.419 186.825C526.237 186.343 526.927 187.312 526.533 187.827C525.769 188.841 526.611 189.055 526.224 189.575C525.923 189.992 525.472 189.645 525.479 189.561ZM362.703 124.052C362.657 124.873 361.32 124.784 361.489 123.821C361.625 123.043 362.749 123.275 362.703 124.052ZM478.147 138.584C477.687 138.537 478.469 137.471 479.159 137.804C479.311 137.881 480.145 138.801 478.147 138.584ZM486.775 133.109C487.608 132.167 488.576 133.205 487.871 134.076C487.099 135.04 485.757 134.259 486.775 133.109ZM449.212 128.235C448.267 127.848 449.644 126.303 449.888 127.103C450.089 127.763 449.559 128.376 449.212 128.235ZM453.399 87.8621C451.432 87.9317 454.895 80.5444 454.297 86.8585C454.24 87.4845 454.061 87.8376 453.399 87.8621ZM396.867 75.1809C396.9 74.6796 397.923 74.5525 398.324 74.9963C399.271 76.0515 396.792 76.3311 396.867 75.1809ZM416.996 136.573C417.293 134.555 420.087 136.461 418.568 138.399C417.828 139.331 416.752 138.291 416.996 136.573ZM476.731 125.856C476.096 125.901 475.949 124.8 476.729 124.781C477.383 124.772 477.881 125.779 476.731 125.856ZM445.257 130.559C444.948 130.215 445.304 129.629 445.888 129.973C445.967 130.972 445.327 130.631 445.257 130.559ZM342.011 85.2052C341.797 86.6384 339.972 86.1195 340.22 84.6999C340.42 83.574 342.192 83.9999 342.011 85.2052ZM428.363 52.5147C428.005 51.4789 429.6 50.3312 430.133 51.2749C430.831 52.5229 428.763 53.6579 428.363 52.5147ZM411.447 173.333C410.857 173.192 411.036 172.051 412.115 172.316C412.412 173.208 411.856 173.432 411.447 173.333ZM479.265 67.1097C479.447 65.2367 482.897 65.3087 482.029 66.4343C481.109 67.6317 479.136 68.4401 479.265 67.1097ZM379.36 89.5853C378.431 89.8573 378.448 89.212 378.617 88.9613C378.9 88.5413 379.619 88.864 379.36 89.5853Z" fill="#D93339"/>
<path d="M1539.41 208.041L1548.55 215.367C1548.55 215.367 1552.95 206.341 1557.31 205.568C1561.67 204.795 1565.73 207.436 1568.72 214.209C1571.72 220.979 1573.56 226.143 1573.56 226.143C1573.56 226.143 1577.92 212.659 1591.31 219.023C1604.68 225.385 1605.11 241.571 1605.53 245.511C1605.95 249.451 1606.08 251.716 1606.08 251.716L1614.84 254.321C1614.84 254.321 1616.95 249.071 1615.75 235.989C1614.55 222.916 1601.92 206.127 1594.08 202.673C1586.23 199.229 1573.93 210.829 1573.93 210.829C1573.93 210.829 1568.4 193.281 1557.67 190.572C1546.95 187.861 1539.41 208.035 1539.41 208.035V208.041Z" fill="#E6BB95"/>
<path d="M336.492 168.219C338.435 173.539 334.192 178.808 331.329 176.097C325.656 170.776 334.499 162.745 336.492 168.219Z" fill="#BC9467"/>
<path d="M300.408 50.3008C301.635 49.2776 300.868 46.6172 299.488 47.3335L299.436 47.2823C298.823 47.6404 298.415 48.4079 297.443 49.5846C298.976 49.9938 300.049 50.6078 300.408 50.3008Z" fill="#BC9467"/>
<path d="M398.132 149.085C401.096 147.244 404.776 152.257 401.148 154.713C397.416 157.271 394.401 151.388 398.132 149.085Z" fill="#BC9467"/>
<path d="M253.335 91.892C252.312 92.1467 251.801 93.0173 252.415 93.9893H252.465C253.845 96.1373 255.021 93.5293 255.736 92.5053C254.509 92.148 253.845 91.7387 253.335 91.892Z" fill="#BC9467"/>
<path d="M218.579 79.3069C218.119 81.8137 212.803 79.8185 213.263 75.8795C213.519 73.4239 219.295 75.3679 218.579 79.3069Z" fill="#BC9467"/>
<path d="M182.903 213.8C182.392 200.295 195.988 200.243 195.323 208.684C194.556 218.557 183.209 221.832 182.903 213.8Z" fill="#BC9467"/>
<path d="M91.363 99.156C87.683 102.225 87.8363 99.7186 83.6963 100.384C76.3875 101.56 75.7742 112.201 80.5275 108.62C84.4119 105.653 85.1275 103.3 89.9319 103.556C91.5675 103.657 94.6853 105.909 96.7809 103.3C98.7742 100.896 94.7363 96.3933 91.363 99.156Z" fill="#BC9467"/>
<path d="M78.5342 198.095C83.4409 196.917 82.6742 197.941 85.3319 203.467H85.2297C86.6607 206.484 92.5897 206.996 96.7297 194.973C98.6718 189.449 91.9251 193.439 84.923 188.477C83.543 187.453 81.3451 188.272 74.4963 193.848V193.9C75.1094 195.332 75.6205 196.764 76.1314 198.196L76.1319 198.197C76.7963 198.299 77.563 198.299 78.5342 198.095Z" fill="#BC9467"/>
<path d="M451.389 107.035C450.163 110.513 447.863 110.769 445.563 109.745C440.86 107.648 447.761 101.919 451.389 107.035Z" fill="#BC9467"/>
<path d="M115.896 19.5039C116.254 17.8668 116.663 16.7923 116.561 15.8204H116.51C116.254 13.4671 110.887 15.2066 112.727 17.8668C113.238 18.583 114.465 18.7876 115.896 19.5039Z" fill="#BC9467"/>
<path d="M456.705 1.59879C454.559 4.25892 455.632 4.25879 452.719 2.77532C454.252 -0.0896101 453.383 0.473322 456.705 1.59879Z" fill="#BC9467"/>
<path d="M522.383 160.699C526.625 159.777 525.449 160.136 526.88 157.271C525.705 156.861 524.887 156.299 524.12 156.401C521.259 156.811 521.973 160.801 522.383 160.699Z" fill="#BC9467"/>
<path d="M611.163 -0.140791C614.076 5.69121 608.556 9.16974 607.227 6.20267C605.08 1.29161 609.833 -2.95452 611.163 -0.140791Z" fill="#BC9467"/>
<path d="M271.735 219.888C262.789 221.064 263.249 212.469 269.025 212.469C271.989 212.469 277.305 217.381 271.735 219.888Z" fill="#BC9467"/>
<path d="M424.3 33.4698C423.329 31.7304 429.003 31.7815 429.565 35.0044C429.667 35.7206 428.543 40.9899 424.3 33.4698Z" fill="#BC9467"/>
<path d="M465.292 49.8914C470.709 50.403 469.483 56.4395 464.679 56.1836C459.363 55.9279 458.699 49.2263 465.292 49.8914Z" fill="#BC9467"/>
<path d="M465.292 -3.61948C463.503 -5.76814 467.029 -9.04201 469.075 -6.33068C470.761 -4.07974 468.461 0.217322 465.292 -3.61948Z" fill="#BC9467"/>
<path d="M1636.13 138.587C1635.64 132.941 1641.11 128.948 1643.17 132.309C1647.28 138.923 1636.64 144.395 1636.13 138.587Z" fill="#C8102E"/>
<path d="M1640.49 261.917C1639.04 262.588 1639.09 265.359 1640.61 265.024L1640.64 265.087C1641.33 264.9 1641.92 264.264 1643.17 263.377C1641.8 262.585 1640.92 261.713 1640.49 261.917Z" fill="#C8102E"/>
<path d="M1571.57 141.109C1568.23 142.121 1565.96 136.321 1570.11 134.888C1574.39 133.383 1575.77 139.851 1571.57 141.109Z" fill="#C8102E"/>
<path d="M1696.79 233.913C1697.84 233.931 1698.56 233.223 1698.21 232.124L1698.17 232.111C1697.39 229.676 1695.57 231.893 1694.61 232.697C1695.71 233.361 1696.25 233.929 1696.79 233.913Z" fill="#C8102E"/>
<path d="M1727.13 255.084C1728.23 252.78 1732.85 256.085 1731.39 259.773C1730.51 262.081 1725.43 258.705 1727.13 255.084Z" fill="#C8102E"/>
<path d="M1796.47 134.327C1793.47 147.513 1780.31 144.04 1783.13 136.053C1786.43 126.708 1798.25 126.484 1796.47 134.327Z" fill="#C8102E"/>
<path d="M1855.29 268.861C1859.65 266.848 1858.85 269.231 1863.03 269.661C1870.4 270.417 1873.75 260.292 1868.23 262.521C1863.71 264.383 1862.4 266.472 1857.83 264.98C1856.27 264.457 1853.84 261.473 1851.13 263.452C1848.59 265.26 1851.32 270.657 1855.29 268.861Z" fill="#C8102E"/>
<path d="M1893.33 176.552C1888.28 176.417 1889.29 175.627 1888.15 169.597L1888.25 169.624C1887.64 166.336 1882.04 164.305 1874.92 174.853C1871.61 179.691 1879.17 177.581 1884.67 184.192C1885.73 185.539 1888.07 185.317 1896.13 181.701L1896.15 181.652C1895.93 180.111 1895.8 178.595 1895.68 177.079V177.075C1895.07 176.804 1894.32 176.605 1893.33 176.552Z" fill="#C8102E"/>
<path d="M1509.17 167.956C1511.27 164.912 1513.56 165.26 1515.51 166.845C1519.52 170.091 1511.36 173.841 1509.17 167.956Z" fill="#C8102E"/>
<path d="M1476.73 268.493C1479.49 266.477 1478.45 266.2 1480.89 268.389C1478.67 270.761 1479.65 270.441 1476.73 268.493Z" fill="#C8102E"/>
<path d="M1454.43 97.688C1450.08 97.4787 1451.31 97.4373 1449.19 99.836C1450.21 100.536 1450.85 101.292 1451.63 101.392C1454.51 101.737 1454.84 97.6947 1454.43 97.688Z" fill="#C8102E"/>
<path d="M1326.91 230.152C1325.6 223.759 1331.84 221.827 1332.36 225.04C1333.16 230.343 1327.47 233.216 1326.91 230.152Z" fill="#C8102E"/>
<path d="M1712.15 105.424C1721.09 106.604 1718.43 114.792 1712.84 113.296C1709.97 112.528 1706.11 106.404 1712.15 105.424Z" fill="#C8102E"/>
<path d="M1516.32 246.083C1516.81 248.016 1511.33 246.496 1511.63 243.236C1511.71 242.517 1514.16 237.715 1516.32 246.083Z" fill="#C8102E"/>
<path d="M1480.93 219.588C1475.83 217.689 1478.57 212.173 1483.16 213.665C1488.23 215.289 1487.13 221.94 1480.93 219.588Z" fill="#C8102E"/>
<path d="M1467.07 271.312C1468.24 273.852 1463.99 276.103 1462.71 272.952C1461.67 270.34 1465 266.783 1467.07 271.312Z" fill="#C8102E"/>
</g>
</g>
</g>
<defs>
<clipPath id="clip0_2349_49">
<rect width="1920" height="268" fill="white"/>
</clipPath>
<clipPath id="clip1_2349_49">
<rect width="1920" height="357.333" fill="white" transform="translate(0 -44.6667)"/>
</clipPath>
</defs>
</svg>
