<svg width="153" height="27" viewBox="0 0 153 27" fill="none" xmlns="http://www.w3.org/2000/svg">
<g clip-path="url(#clip0_2349_12)">
<mask id="mask0_2349_12" style="mask-type:luminance" maskUnits="userSpaceOnUse" x="0" y="1" width="27" height="25">
<path d="M26.0051 1.45569H0.442871V25.5142H26.0051V1.45569Z" fill="white"/>
</mask>
<g mask="url(#mask0_2349_12)">
<path d="M25.996 13.3028C25.9899 14.5642 25.8542 15.8354 25.5551 17.091C25.2077 18.5489 24.4999 19.8123 23.5429 20.9457C22.4462 22.2447 21.1633 23.3344 19.7565 24.2796C19.309 24.5802 18.8251 24.8138 18.2861 24.8933C18.1441 24.9143 17.882 24.8942 17.8631 24.8338C17.8054 24.6494 17.975 24.5381 18.1256 24.439C18.6877 24.0695 19.2621 23.7161 19.802 23.316C22.5932 21.2477 24.0798 18.4557 24.3646 14.9998C24.5143 13.1816 24.3691 11.395 23.8548 9.6412C23.2563 7.60043 22.1246 5.96425 20.2988 4.82937C19.3876 4.26291 18.4763 3.70246 17.4634 3.33614C16.7653 3.0837 16.0407 2.94887 15.2983 2.92638C15.1578 2.92212 14.9588 2.87768 14.927 3.08874C14.8969 3.28888 15.0572 3.39079 15.2237 3.43483C15.4178 3.48618 15.62 3.52826 15.8197 3.53313C16.4766 3.5492 17.0879 3.73849 17.6798 4.00146C18.7837 4.49185 19.8154 5.10143 20.7171 5.91364C22.1813 7.23241 23.0142 8.88431 23.3004 10.8297C23.4749 12.0169 23.5423 13.2091 23.5296 14.4072C23.5094 16.32 22.8697 18.0304 21.8893 19.6496C19.9986 22.7725 17.1691 24.4779 13.6788 25.2171C11.565 25.6647 9.47396 25.6271 7.40147 24.9651C5.2756 24.2858 3.64033 22.986 2.48979 21.0833C2.26649 20.7141 2.17251 20.2657 2.02543 19.8514C2.00216 19.7859 1.99053 19.699 2.01419 19.6377C2.05794 19.5243 2.10904 19.3747 2.20029 19.3312C2.27304 19.2964 2.44004 19.3677 2.51262 19.4428C2.69269 19.6293 2.84975 19.8398 3.00359 20.0498C3.76171 21.0846 4.60695 22.0411 5.66299 22.7746C7.08831 23.7647 8.69296 24.2909 10.411 24.4786C10.5531 24.4941 10.7027 24.4891 10.8422 24.461C10.9175 24.4458 10.9788 24.3612 11.0465 24.308C10.9823 24.2509 10.9255 24.1584 10.8524 24.143C10.4776 24.0642 10.0991 24.0029 9.72114 23.9399C8.82193 23.7901 8.00939 23.4225 7.23474 22.9562C6.2317 22.3523 5.29839 21.6574 4.49144 20.8051C3.26584 19.5106 2.55951 17.9745 2.4828 16.1851C2.43006 14.955 2.38678 13.7186 2.44955 12.4907C2.53532 10.8125 3.18197 9.31448 4.15917 7.95684C5.27142 6.41155 6.73882 5.33665 8.50018 4.64643C8.90407 4.48816 9.30332 4.31766 9.70086 4.14393C9.76234 4.11709 9.80296 4.04228 9.85323 3.98967C9.78099 3.95756 9.69895 3.88488 9.63814 3.89972C9.1687 4.01431 8.68602 4.1019 8.23951 4.27901C4.69325 5.68569 2.58568 8.29126 1.90692 12.0439C1.77083 12.7962 1.75733 13.5709 1.68905 14.3355C1.67502 14.4923 1.70684 14.686 1.51771 14.7432C1.32249 14.8022 1.15788 14.6615 1.10019 14.506C0.993835 14.2191 0.910877 13.9142 0.879015 13.6104C0.535771 10.335 1.73246 7.64978 4.05312 5.41224C5.35729 4.15477 6.91645 3.30802 8.6012 2.68521C10.666 1.92188 12.8008 1.43236 15.0014 1.45664C17.2604 1.48158 19.4198 2.01705 21.3343 3.28996C22.9359 4.3549 24.0417 5.84679 24.825 7.58329C25.6647 9.44476 26.0724 11.0591 25.996 13.3028Z" fill="#C8102E"/>
<path d="M0.467181 16.62C0.484762 16.484 0.494139 16.3463 0.521747 16.2122C0.568761 15.984 0.684057 15.8045 0.930583 15.7596C1.18549 15.7131 1.42932 15.773 1.556 16.0036C1.67494 16.2202 1.7641 16.4672 1.80286 16.7109C1.87332 17.1534 1.89863 17.6032 1.93887 18.0504C1.96014 18.2869 1.80239 18.445 1.56672 18.4116C1.12636 18.3492 0.778301 18.1481 0.659097 17.6894C0.5685 17.3408 0.51363 16.9829 0.442871 16.629C0.450989 16.626 0.459063 16.623 0.467181 16.62Z" fill="#C8102E"/>
<path d="M17.5521 14.8528C16.2521 14.9366 14.8775 14.9844 13.5123 15.1238C11.8521 15.2933 10.1993 15.5352 8.54448 15.7549C7.7064 15.8663 6.87106 15.998 6.03433 16.1195C5.97016 16.1289 5.89598 16.1516 5.84189 16.1297C5.74248 16.0895 5.61381 16.0399 5.57518 15.9575C5.54622 15.8958 5.61846 15.7571 5.68296 15.6875C5.77456 15.5886 5.8975 15.5171 6.01223 15.4418C7.19555 14.6656 8.44702 14.021 9.76434 13.5064C9.94202 13.4371 10.0681 13.3326 10.1709 13.1727C10.4449 12.7465 10.7353 12.331 11.0123 11.9069C11.1262 11.7327 11.2693 11.6412 11.48 11.6004C12.9128 11.3225 14.3428 11.0295 15.7742 10.7438C16.0449 10.6898 16.1629 10.762 16.233 11.0336C16.3324 11.4192 16.4251 11.8067 16.5106 12.1957C16.5519 12.384 16.644 12.4851 16.8377 12.5448C17.8803 12.8656 18.9284 13.1748 19.9067 13.6717C20.1642 13.8026 20.4226 13.9337 20.6691 14.0835C20.8317 14.1824 20.9788 14.31 20.8933 14.5441C20.8191 14.7473 20.646 14.8543 20.4005 14.8537C19.4752 14.8514 18.5498 14.8528 17.5521 14.8528Z" fill="white"/>
</g>
<path fill-rule="evenodd" clip-rule="evenodd" d="M43.0699 1.90733C40.4651 2.70126 39.621 5.38479 41.9762 5.38479C42.8328 5.38479 42.6965 5.74116 40.9572 8.04477C37.3936 12.7647 33.3332 22.7029 34.1246 24.7665C34.5081 25.7649 35.6127 25.5734 36.7791 24.3059C37.9038 23.0839 43.7385 11.6054 45.165 7.8097C46.0221 5.52865 46.0782 5.48503 47.5222 5.98826C48.3357 6.27196 49.3522 7.03982 49.7813 7.69492C51.4268 10.206 49.28 12.7612 44.4883 13.9952C42.4379 14.5235 42.3507 14.6123 43.2352 15.2683C45.1765 16.7079 51.567 14.726 53.2457 12.1638C54.5233 10.2141 54.7208 7.23229 53.6883 5.48404C51.95 2.54188 46.7429 0.787603 43.0699 1.90733ZM113.24 2.63911C112.674 3.03607 111.05 5.16927 109.632 7.37965C107.242 11.1047 106.929 11.3994 105.358 11.3994C101.894 11.3994 101.013 12.7161 103.455 14.2434C104.213 14.7181 104.908 15.1536 104.998 15.2127C105.087 15.2713 104.777 16.6888 104.308 18.3624C103.513 21.1947 103.511 21.4935 104.281 22.6679C104.736 23.3621 105.319 23.93 105.577 23.93C106.515 23.93 108.029 21.7652 109.107 18.8846C109.712 17.2657 110.464 15.7375 110.778 15.4879C111.605 14.8323 116.289 14.2158 115.92 14.8112C115.756 15.0764 115.582 16.3545 115.534 17.6512C115.45 19.8325 115.997 20.8886 117.22 20.9151C118.147 20.9352 119.562 18.5795 120.331 15.738C121.053 13.0725 121.404 12.5161 122.656 12.043C124.337 11.4084 124.628 10.397 123.129 10.397C121.909 10.397 121.888 9.9484 122.965 6.91702C124.859 1.58153 121.905 2.12085 119.047 7.63176C117.431 10.7479 117.349 10.819 115.124 11.0185C113.876 11.1308 112.758 11.1478 112.641 11.0566C112.524 10.9653 113.031 9.42162 113.768 7.62675C115.681 2.96791 115.48 1.07029 113.24 2.63911ZM59.6257 3.85908C57.3552 5.24345 56.1607 7.17014 56.9692 8.14401C57.3115 8.55601 57.9376 8.89333 58.3611 8.89333C59.2578 8.89333 63.483 4.45753 63.483 3.51625C63.483 2.56744 61.4471 2.74838 59.6257 3.85908ZM142.524 6.10906C142.099 6.53459 141.273 7.48992 140.69 8.23123C139.792 9.372 139.291 9.56246 137.436 9.46623C134.819 9.3309 134.026 10.178 135.586 11.441C136.185 11.9262 136.914 12.4024 137.206 12.5002C137.543 12.6124 137.357 13.6439 136.698 15.3149C135.515 18.3163 135.24 23.6413 136.285 23.3195C136.63 23.2132 137.528 21.7847 138.281 20.1448C141.645 12.8204 141.728 12.7191 144.979 11.9748C150.703 10.6646 151.698 10.3539 151.698 9.87622C151.698 9.61058 149.998 9.39455 147.905 9.39455C144.199 9.39455 144.121 9.36849 144.471 8.26681C145.066 6.40026 144.974 5.68251 144.115 5.50409C143.667 5.41086 142.95 5.68302 142.524 6.10906ZM76.1389 8.2603C72.5918 8.40815 72.0038 8.55802 72.0038 9.31436C72.0038 10.818 73.099 11.3984 75.9886 11.4265L78.7703 11.453L77.0647 12.8048C73.2263 15.8457 71.0014 18.0923 71.0014 18.9268C71.0014 20.261 80.9636 20.8795 83.7444 19.7177C84.7975 19.2777 86.43 18.9177 87.3723 18.9177C88.3146 18.9177 89.9816 18.4606 91.0773 17.9012C92.5855 17.1319 93.3032 17.0101 94.0315 17.4C95.1066 17.9754 97.0729 18.0732 98.2768 17.611C99.5669 17.1159 99.185 16.0487 97.5084 15.4643C96.0794 14.9661 95.9742 14.7811 96.2709 13.285C97.0077 9.56647 97.0613 9.6592 94.082 9.49028C88.8629 9.19406 84.0331 12.4084 84.0331 16.1786V17.9153L81.6523 17.8803C77.1513 17.8136 77.0697 17.4727 80.7396 14.0865C83.7645 11.2962 84.7965 9.40157 83.6572 8.73144C82.8673 8.26631 80.1206 8.09389 76.1389 8.2603ZM54.4611 13.1688C51.6147 16.6262 50.6889 19.0766 51.4949 21.0219C52.0568 22.3787 53.9599 23.0468 53.9599 21.8875C53.9599 21.5907 54.8641 19.8265 55.9698 17.9659C58.1401 14.312 58.8518 10.7945 57.4684 10.5579C57.0549 10.4872 55.7016 11.6621 54.4611 13.1688ZM60.1585 11.1423C59.6728 12.4069 60.7435 13.1021 63.6209 13.3918L66.2398 13.655L62.1027 17.0848C58.1781 20.3382 56.9307 22.1531 57.7291 23.4452C57.9752 23.8427 59.136 23.9144 61.4932 23.6778C63.3828 23.4879 67.3235 23.6026 70.3328 23.9344C76.3665 24.6 79.5929 24.0407 79.9336 22.2704C80.0845 21.487 79.8689 21.4073 78.3614 21.6905C76.6291 22.0153 66.0974 20.5968 65.3507 19.9382C65.1377 19.7498 66.0443 18.6842 67.366 17.57C70.028 15.325 72.0143 12.1924 71.2359 11.4656C70.9693 11.2165 68.4386 10.8561 65.6127 10.6646C61.1023 10.3589 60.4367 10.4175 60.1585 11.1423ZM92.6841 12.9592C92.4351 13.9121 89.9044 15.4092 88.5426 15.4092C87.5135 15.4092 88.9687 13.5667 90.6527 12.7367C92.808 11.6746 93.0145 11.6971 92.6841 12.9592ZM122.966 13.2329C122.784 13.4143 122.856 13.8278 123.125 14.1522C123.453 14.5476 123.26 15.5791 122.537 17.2918C121.512 19.7152 121.5 19.9071 122.305 21.1346C123.577 23.0749 127.136 22.5882 129.115 20.2039C129.918 19.2365 130.646 19.1889 130.646 20.1031C130.646 21.1116 132.669 23.5064 133.333 23.2849C133.648 23.1796 133.834 22.4093 133.748 21.5732C133.662 20.7367 133.953 18.6611 134.394 16.961C134.834 15.2603 135.06 13.6519 134.896 13.3863C134.339 12.4846 133.224 12.898 132.151 14.4047C131.24 15.6839 127.402 18.4165 126.515 18.4165C126.358 18.4165 126.352 17.5163 126.5 16.4167C126.665 15.1771 126.528 14.1285 126.14 13.6599C125.502 12.8916 123.568 12.6314 122.966 13.2329Z" fill="#231F20"/>
</g>
<defs>
<clipPath id="clip0_2349_12">
<rect width="152" height="25.8301" fill="white" transform="translate(0.442871 0.569946)"/>
</clipPath>
</defs>
</svg>
